<?xml version="1.0" encoding="UTF-8" standalone="no"?><!DOCTYPE svg PUBLIC "-//W3C//DTD SVG 1.1//EN" "http://www.w3.org/Graphics/SVG/1.1/DTD/svg11.dtd"><svg width="100%" height="100%" viewBox="0 0 7087 3544" version="1.1" xmlns="http://www.w3.org/2000/svg" xmlns:xlink="http://www.w3.org/1999/xlink" xml:space="preserve" xmlns:serif="http://www.serif.com/" style="fill-rule:evenodd;clip-rule:evenodd;stroke-linejoin:round;stroke-miterlimit:2;"><g id="_2.png" serif:id="2.png"><g id="Comfort"><path d="M4125.984,1476.092c30.295,-2.631 168.06,-18.071 182.667,-19.708c108.275,-12.135 107.518,-16.742 116.939,-17.615c150.476,-13.951 188.917,33.486 236.887,50.519c23.761,8.437 87.248,-60.43 153.565,-77.405c250.718,-64.176 418.737,87.483 478.573,241.645c138.662,357.255 -114.05,655.828 -132.47,680.51c-128.488,172.168 -333.464,269.766 -396.579,284.512c-159.534,37.272 -471.017,-168.425 -596.45,-395.658c-193.856,-351.188 -28.094,-582.791 -32.148,-597.223c-2.292,-8.161 -10.304,-10.134 -11.51,-10.432c-2.051,-0.505 -81.376,11.782 -89.785,13.96c-25.043,6.485 -26.795,12.998 -62.224,205.532c-106.241,577.356 -142.588,899.43 -379.288,1201.211c-248.575,316.922 -488.95,353.771 -550.005,365.799c-212.558,41.874 -273.635,-99.181 -156.077,-170.489c34.885,-21.16 177.076,6.139 288.188,-76.841c162.804,-121.584 234.541,-335.14 305.69,-617.472c51.13,-202.893 171.41,-887.877 172.345,-898.812c2.785,-32.559 -43.741,-36.454 -50.148,-38.379c-203.73,-61.207 -257.007,-222.825 -167.781,-256.774c52.817,-20.096 195.079,102.663 247.056,89.253c32.043,-8.267 47.283,-251.023 205.186,-473.839c321.106,-453.109 806.475,-385.521 953.669,-296.428c201.993,122.261 94.779,268.857 27.798,276.714c-99.409,11.661 -115.743,-29.55 -147.635,-66.972c-81.937,-96.145 -217.813,-86.727 -295.505,-52.613c-250.236,109.879 -315.356,379.205 -374.478,624.709c-10.163,42.202 24.618,31.069 73.521,32.296Z" style="fill:#23225b;"/><path d="M1217.729,2636.723c-45.773,-6.439 -45.075,-7.437 -91.277,-9.181c-297.593,-11.234 -626.472,-173.118 -829.926,-419.333c-361.772,-437.809 -307.216,-1002.921 -139.171,-1328.282c202.843,-392.736 503.136,-529.902 670.686,-593.858c367.405,-140.242 700.428,-56.621 730.148,-49.623c28.426,6.692 212.2,49.96 339.866,133.199c108.718,70.885 101.94,79.106 143.28,118.845c149.84,144.036 65.398,253.54 -15.097,251.108c-70.215,-2.121 -99.169,-59.941 -109.96,-75.444c-197.623,-283.919 -614.042,-298.888 -893.1,-119.553c-381.153,244.945 -511.679,832.328 -428.43,1236.562c11.283,54.786 84.404,409.842 412.915,564.248c315.818,148.44 538.568,47.089 638.7,6.089c154.628,-63.315 184.831,85.245 54.421,161.478c-211.689,123.746 -339.838,103.68 -483.052,123.746Z" style="fill:#23225b;"/><path d="M3173.924,1448.427c24.757,1.776 136.353,-7.424 224.828,109.43c176.988,233.759 25.344,723.826 -39.143,838.572c-27.971,49.77 -111.811,221.598 -302.29,200.704c-105.017,-11.52 -63.701,-123.919 -59.627,-135.001c0.179,-0.486 33.497,-75.489 69.772,-172.488c37.456,-100.156 56.502,-189.867 60.078,-206.713c20.781,-97.882 23.708,-97.281 30.337,-197.05c12.065,-181.577 -145.798,-199.779 -201.889,-24.615c-63.465,198.192 -76.781,500.418 -280.663,619.554c-54.501,31.847 -284.927,57.008 -227.156,-110.584c3.186,-9.242 285.97,-654.356 112.627,-731.547c-59.198,-26.361 -112.876,33.921 -129.485,78.173c-92.464,246.358 -96.857,583.587 -353.293,676.566c-46.333,16.8 -277.622,46.61 -177.125,-139.282c322.206,-595.99 183.751,-929.975 189.405,-994.141c4.477,-50.798 40.052,-65.532 105.35,-51.279c161.868,35.332 190.261,196.114 200.161,201.857c20.671,11.99 66.036,-51.533 164.912,-73.471c20.928,-4.643 192.638,-24.714 292.826,101.054c77.281,97.013 42.178,161.897 82.595,131.448c6.918,-5.212 10.805,-23.775 65.632,-65.364c78.449,-59.508 142.244,-53.86 172.148,-55.824Z" style="fill:#23225b;"/><path d="M1993.043,1481.049c0.788,7.055 64.466,301.915 -191.146,558.921c-220.884,222.089 -617.469,230.533 -836.222,-33.059c-192.26,-231.668 -153.34,-647.604 132.598,-879.811c268.691,-218.2 706.532,-105.352 832.545,148.2c57.236,115.164 58.368,181.207 62.225,205.749Z" style="fill:#23225b;"/><path d="M6154.761,1299.999c-25.104,-191.658 -26.076,-191.474 -30.001,-210.374c-7.803,-37.576 -66.568,-14.566 -94.261,-9.608c-86.078,15.411 -215.067,-8.268 -226.647,-79.958c-13.251,-82.033 88.964,-61.24 253.795,-114.087c31.65,-10.147 33.027,-24.332 -17.229,-159.569c-35.191,-94.698 -134.362,-183.091 -61.955,-261.376c6.481,-7.007 35.181,-38.037 117.959,-17.923c199.605,48.5 275.037,255.425 278.492,261.09c11.861,19.45 32.063,28.187 236.796,-158.167c82.414,-75.016 81.749,-97.485 108.814,-112.843c117.497,-66.671 141.775,141 -23.705,315.753c-169.795,179.309 -260.198,150.409 -248.467,220.085c90.118,535.254 47.809,891.485 286.041,889.013c158.305,-1.643 193.396,-207.275 194.822,-210.996c26.257,-68.513 140.08,-69.812 135.568,52.687c-9.476,257.261 -268.518,443.424 -460.829,443.89c-411.357,0.997 -402.017,-502.246 -449.193,-847.618Z" style="fill:#23225b;"/><path d="M5834.01,1149.972c12.699,0.158 76.165,-10.215 155.216,34.865c15.056,8.586 41.614,32.604 47.461,41.08c131.557,190.715 -35.169,405.658 -122.399,356.987c-36.836,-20.554 -38.846,-73.189 -39.222,-75.245c-19.698,-107.645 -112.477,-117.261 -146.898,25.886c-28.95,120.396 122.805,475.53 94.74,678.763c-3.375,24.44 -25.521,184.809 -173.469,254.988c-5.262,2.496 -77.295,18.053 -115.586,-6.485c-75.25,-48.223 72.542,-514.646 -244.74,-993.562c-99.869,-150.746 46.481,-194.626 128.861,-171.167c99.001,28.192 113.083,58.25 134.589,75.002c51.373,40.016 34.925,-192.625 281.447,-221.111Z" style="fill:#23225b;"/><path d="M4569.664,1708.61c53.495,3.526 52.109,9.051 102.965,24.892c26.914,8.384 50.851,-19.503 57.619,-23.464c179.139,-104.86 300.105,75.187 281.581,254.234c-3.301,31.907 -21.274,205.627 -171.424,362.478c-97.526,101.878 -123.722,91.364 -209.697,20.695c-295.781,-243.123 -297.549,-606.109 -61.044,-638.834Z" style="fill:#fefefe;"/><path d="M1666.842,1495.295c-32.866,476.805 -340.151,643.707 -466.046,418.823c-100.175,-178.941 70.831,-781.435 343.186,-707.151c144.743,39.479 125.057,263.351 122.86,288.328Z" style="fill:#fefefe;"/></g></g></svg>