<?xml version="1.0" encoding="UTF-8" standalone="no"?><!DOCTYPE svg PUBLIC "-//W3C//DTD SVG 1.1//EN" "http://www.w3.org/Graphics/SVG/1.1/DTD/svg11.dtd"><svg width="100%" height="100%" viewBox="0 0 1162 1159" version="1.1" xmlns="http://www.w3.org/2000/svg" xmlns:xlink="http://www.w3.org/1999/xlink" xml:space="preserve" xmlns:serif="http://www.serif.com/" style="fill-rule:evenodd;clip-rule:evenodd;stroke-linejoin:round;stroke-miterlimit:2;"><g id="Facebook.png"><path d="M719.619,215.953c-37.319,0.124 -37.224,-0.146 -72.714,5.361c-261.96,40.648 -196.465,326.157 -207.393,357.481c-2.981,8.545 -114.859,-1.791 -119.043,6.07c-1.633,3.068 -0.655,171.007 -0.51,171.918c1.637,10.287 114.471,-0.144 119.054,6.28c1.784,2.5 1.649,379.069 0.083,381c-5.105,6.296 -153.373,-34.41 -264.854,-145.188c-24.36,-24.206 -143.981,-139.827 -170.479,-341.427c-5.623,-42.778 -3.729,-123.861 -2.049,-136.972c53.563,-417.888 449.76,-583.687 735.549,-499.017c396.476,117.463 509.366,540.285 363.439,822.298c-152.07,293.884 -444.244,316.733 -447.304,314.356c-3.15,-2.447 -2.056,-393.642 -0.551,-395.329c3.93,-4.404 143.299,-0.781 151.493,-2.082c5.78,-0.918 5.748,-2.817 18.103,-70.882c17.681,-97.402 20.686,-97.686 17.524,-105.649c-1.957,-4.928 -177.252,-0.527 -184.471,-2.468c-5.859,-1.576 -5.56,-3.781 -3.667,-75.75c4.049,-153.967 158.563,-108.341 196.555,-115.335c4.762,-0.877 3.427,-16.367 3.426,-47.927c-0.004,-108.899 1.365,-112.511 -6.629,-114.324c-56.288,-12.771 -115.467,-12.465 -125.561,-12.413Z" style="fill:#0866ff;"/></g></svg>