<?xml version="1.0" encoding="UTF-8" standalone="no"?><!DOCTYPE svg PUBLIC "-//W3C//DTD SVG 1.1//EN" "http://www.w3.org/Graphics/SVG/1.1/DTD/svg11.dtd"><svg width="100%" height="100%" viewBox="0 0 3308 1512" version="1.1" xmlns="http://www.w3.org/2000/svg" xmlns:xlink="http://www.w3.org/1999/xlink" xml:space="preserve" xmlns:serif="http://www.serif.com/" style="fill-rule:evenodd;clip-rule:evenodd;stroke-linejoin:round;stroke-miterlimit:2;"><g><g id="Escrita-Tá-Limpo-" serif:id="Escrita Tá Limpo!"><path d="M1167.712,945.372l0,-305.776c0,-44.639 -27.06,-72.166 -71.13,-72.166c-44.07,0 -71.13,27.527 -71.13,72.166l0,357.855c0,45.383 28.607,72.91 75.769,72.91l185.119,0c42.524,0 68.811,-23.807 68.811,-62.494c0,-38.687 -26.287,-62.494 -68.811,-62.494l-118.627,0Z"/><g><path d="M1451.57,708.459c-40.204,0 -64.945,25.295 -64.945,66.214l0,235.098c0,40.919 24.741,66.214 64.945,66.214c40.204,0 64.945,-25.295 64.945,-66.214l0,-235.098c0,-40.919 -24.741,-66.214 -64.945,-66.214Z"/><path d="M1993.552,703.995c-51.028,0 -89.686,15.624 -114.427,43.895l-1.546,0c-22.422,-28.271 -56.44,-43.895 -100.51,-43.895c-43.297,0 -72.677,14.88 -93.552,43.151l-1.546,0c-9.278,-23.807 -30.153,-38.687 -60.306,-38.687c-40.204,0 -64.945,25.295 -64.945,66.214l0,235.098c0,40.919 24.741,66.214 64.945,66.214c40.204,0 64.945,-25.295 64.945,-66.214l0,-125.733c0,-43.151 16.236,-65.47 48.709,-65.47c30.153,0 45.616,19.343 45.616,57.287l0,133.917c0,40.919 24.741,66.214 64.945,66.214c40.204,0 64.945,-25.295 64.945,-66.214l0,-125.733c0,-43.151 16.236,-65.47 48.709,-65.47c30.153,0 45.616,19.343 45.616,57.287l0,133.917c0,40.919 24.741,66.214 64.945,66.214c40.204,0 64.945,-25.295 64.945,-66.214l0,-148.796c0,-103.413 -48.709,-156.98 -141.488,-156.98Z"/><path d="M2399.459,703.995c-44.07,0 -80.408,15.624 -104.376,41.663l-1.546,0c-9.278,-23.063 -29.38,-37.199 -59.533,-37.199c-40.204,0 -64.945,25.295 -64.945,66.214l0,343.478c0,40.919 24.741,66.214 64.945,66.214c40.204,0 64.945,-25.295 64.945,-66.214l0,-73.413l1.546,0c23.968,23.063 57.987,35.711 98.964,35.711c105.922,0 174.733,-73.654 174.733,-188.227c0,-114.573 -68.811,-188.227 -174.733,-188.227Zm-27.834,261.881c-41.75,0 -72.677,-31.247 -72.677,-73.654c0,-42.407 30.926,-73.654 72.677,-73.654c40.977,0 69.584,29.759 69.584,73.654c0,43.895 -28.607,73.654 -69.584,73.654Z"/><path d="M2589.656,892.223c0,111.597 82.728,188.227 204.113,188.227c121.386,0 204.113,-76.63 204.113,-188.227c0,-111.597 -82.728,-188.227 -204.113,-188.227c-121.386,0 -204.113,76.63 -204.113,188.227Zm132.983,0c0,-43.895 28.607,-73.654 71.13,-73.654c42.524,0 71.13,29.759 71.13,73.654c0,43.895 -28.607,73.654 -71.13,73.654c-42.524,0 -71.13,-29.759 -71.13,-73.654Z"/></g><g><path d="M1254.095,187.695c-38.302,0 -61.98,21.444 -61.98,56.29c0,34.846 23.678,56.29 61.98,56.29l103.763,0l0,274.749c0,40.877 24.374,65.672 64.069,65.672c39.695,0 64.069,-24.794 64.069,-65.672l0,-274.749l103.763,0c38.302,0 61.98,-21.444 61.98,-56.29c0,-34.846 -23.678,-56.29 -61.98,-56.29l-335.664,0Z"/><path d="M1871.735,309.657c-27.16,0 -45.266,12.732 -53.623,33.506l-1.393,0c-21.588,-23.454 -54.319,-37.527 -94.014,-37.527c-95.407,0 -157.386,66.342 -157.386,169.54c0,103.198 61.98,169.54 157.386,169.54c39.695,0 72.426,-14.073 94.014,-37.527l1.393,0c8.357,20.774 26.463,33.506 53.623,33.506c36.213,0 58.498,-22.784 58.498,-59.641l0,-211.758c0,-36.857 -22.285,-59.641 -58.498,-59.641Zm-123.959,231.862c-36.909,0 -62.676,-26.805 -62.676,-66.342c0,-39.537 25.767,-66.342 62.676,-66.342c37.606,0 65.462,28.145 65.462,66.342c0,38.197 -27.856,66.342 -65.462,66.342Zm105.156,-362.535c0,-25.465 -18.803,-44.898 -45.962,-44.898c-12.535,0 -23.678,4.691 -33.427,12.732l-66.158,57.63c-10.446,8.712 -15.321,19.433 -15.321,32.836c0,22.784 16.017,40.877 41.088,40.877c10.446,0 20.196,-2.68 29.945,-10.052l71.033,-52.269c10.446,-7.371 18.803,-19.433 18.803,-36.857Z"/></g><path d="M3098.291,643.982l-28.363,197.542c-5.742,39.041 11.774,67.302 49.77,74.422c37.997,7.12 64.556,-12.882 73.338,-51.354l45.081,-194.41l1.644,-8.775c8.358,-44.606 -13.169,-76.647 -56.485,-84.763c-43.316,-8.117 -74.983,13.956 -83.342,58.562l-1.644,8.775Zm17.297,293.902c-43.316,-8.117 -76.503,13.671 -84.314,55.353c-7.81,41.681 15.237,74.007 58.553,82.123c43.316,8.117 76.503,-13.671 84.314,-55.353c7.81,-41.681 -15.237,-74.007 -58.553,-82.123Z"/></g><g id="Escrita-Lavanderia" serif:id="Escrita Lavanderia"><path d="M3288.701,1249.656l0,221.244c0,17.873 -14.511,32.384 -32.384,32.384l-2849.588,0c-17.873,0 -32.384,-14.511 -32.384,-32.384l0,-221.244c0,-17.873 14.511,-32.384 32.384,-32.384l2849.588,0c17.873,0 32.384,14.511 32.384,32.384Z"/><g><path d="M446.909,1286.252l38.689,0l0,112.224l65.264,0l0,32.448l-103.953,0l0,-144.672Z" style="fill:#fff;"/><path d="M651.885,1283.358c12.896,0 24.262,2.721 34.097,8.164c9.835,5.442 17.456,13.365 22.862,23.768c5.406,10.403 8.109,22.906 8.109,37.511l0,78.123l-38.689,0l0,-32.035l-53.345,0l0,32.035l-38.103,0l0,-78.123c0,-14.605 2.703,-27.109 8.109,-37.511c5.406,-10.403 13.027,-18.325 22.862,-23.768c9.835,-5.442 21.201,-8.164 34.097,-8.164Zm26.379,83.91l0,-17.981c0,-10.609 -2.41,-18.601 -7.23,-23.974c-4.82,-5.374 -11.268,-8.06 -19.345,-8.06c-8.207,0 -14.72,2.687 -19.54,8.06c-4.82,5.374 -7.23,13.365 -7.23,23.974l0,17.981l53.345,0Z" style="fill:#fff;"/><path d="M899.999,1286.252l-58.62,144.672l-38.103,0l-58.425,-144.672l41.816,0l37.126,94.243l37.908,-94.243l38.299,0Z" style="fill:#fff;"/><path d="M992.965,1283.358c12.896,0 24.262,2.721 34.097,8.164c9.835,5.442 17.456,13.365 22.862,23.768c5.406,10.403 8.109,22.906 8.109,37.511l0,78.123l-38.689,0l0,-32.035l-53.345,0l0,32.035l-38.103,0l0,-78.123c0,-14.605 2.703,-27.109 8.109,-37.511c5.406,-10.403 13.027,-18.325 22.862,-23.768c9.835,-5.442 21.201,-8.164 34.097,-8.164Zm26.379,83.91l0,-17.981c0,-10.609 -2.41,-18.601 -7.23,-23.974c-4.82,-5.374 -11.268,-8.06 -19.345,-8.06c-8.207,0 -14.72,2.687 -19.54,8.06c-4.82,5.374 -7.23,13.365 -7.23,23.974l0,17.981l53.345,0Z" style="fill:#fff;"/><path d="M1183.872,1283.358c16.283,0 28.919,5.477 37.908,16.431c8.988,10.954 13.483,26.558 13.483,46.812l0,84.323l-38.689,0l0,-83.083c0,-10.196 -2.182,-17.843 -6.546,-22.941c-4.364,-5.098 -10.454,-7.647 -18.27,-7.647c-8.077,0 -14.59,2.721 -19.54,8.164c-4.95,5.442 -7.425,13.606 -7.425,24.491l0,81.016l-38.689,0l0,-144.672l37.517,0l0,16.534c9.249,-12.952 22.667,-19.427 40.253,-19.427Z" style="fill:#fff;"/><path d="M1283.331,1286.252l64.678,0c14.981,0 28.268,2.962 39.862,8.887c11.594,5.925 20.582,14.329 26.965,25.214c6.383,10.885 9.575,23.63 9.575,38.235c0,14.605 -3.192,27.35 -9.575,38.235c-6.383,10.885 -15.372,19.29 -26.965,25.214c-11.594,5.925 -24.881,8.887 -39.862,8.887l-64.678,0l0,-144.672Zm63.115,112.017c11.724,0 21.136,-3.513 28.235,-10.54c7.1,-7.027 10.649,-16.741 10.649,-29.141c0,-12.4 -3.55,-22.114 -10.649,-29.141c-7.1,-7.027 -16.511,-10.54 -28.235,-10.54l-24.425,0l0,79.363l24.425,0Z" style="fill:#fff;"/><path d="M1584.249,1419.97c-7.034,4.271 -15.567,7.647 -25.598,10.127c-10.031,2.48 -20.452,3.72 -31.264,3.72c-14.59,0 -26.998,-1.86 -37.224,-5.58c-10.226,-3.72 -17.912,-8.887 -23.057,-15.501c-5.146,-6.614 -7.718,-14.261 -7.718,-22.941c0,-7.578 1.954,-14.261 5.862,-20.047c3.908,-5.787 9.314,-10.265 16.218,-13.434c-5.341,-2.893 -9.412,-6.924 -12.213,-12.09c-2.801,-5.167 -4.201,-10.85 -4.201,-17.051c0,-7.991 2.377,-15.294 7.132,-21.907c4.755,-6.614 12.017,-11.918 21.787,-15.914c9.77,-3.996 21.82,-5.994 36.149,-5.994c8.988,0 17.847,0.896 26.575,2.687c8.728,1.791 16.414,4.202 23.057,7.234l-10.552,30.588c-12.115,-5.649 -24.621,-8.474 -37.517,-8.474c-9.249,0 -16.153,1.274 -20.713,3.823c-4.559,2.549 -6.839,6.097 -6.839,10.644c0,8.267 5.667,12.4 17,12.4l38.689,0l0,31.208l-41.23,0c-6.644,0 -11.659,1.137 -15.046,3.41c-3.387,2.273 -5.08,5.615 -5.08,10.024c0,4.685 2.475,8.336 7.425,10.954c4.95,2.618 12.636,3.927 23.057,3.927c7.425,0 15.078,-1.068 22.96,-3.203c7.881,-2.136 14.753,-5.064 20.615,-8.784l11.724,30.174Z" style="fill:#fff;"/><path d="M1681.363,1392.482l-21.103,0l0,38.441l-38.689,0l0,-144.672l62.528,0c12.375,0 23.122,2.17 32.241,6.51c9.119,4.34 16.153,10.54 21.103,18.601c4.95,8.06 7.425,17.533 7.425,28.418c0,10.471 -2.312,19.6 -6.937,27.384c-4.624,7.785 -11.236,13.882 -19.833,18.291l29.506,45.468l-41.425,0l-24.816,-38.441Zm24.425,-52.702c0,-6.751 -2.019,-11.987 -6.057,-15.707c-4.038,-3.72 -10.031,-5.58 -17.977,-5.58l-21.494,0l0,42.368l21.494,0c7.946,0 13.939,-1.826 17.977,-5.477c4.038,-3.651 6.057,-8.853 6.057,-15.604Z" style="fill:#fff;"/><path d="M1842.569,1317.873l0,81.43l22.08,0l0,31.621l-83.045,0l0,-31.621l22.276,0l0,-81.43l-22.276,0l0,-31.621l83.045,0l0,31.621l-22.08,0Z" style="fill:#fff;"/><path d="M1971.338,1283.358c12.896,0 24.262,2.721 34.097,8.164c9.835,5.442 17.456,13.365 22.862,23.768c5.406,10.403 8.109,22.906 8.109,37.511l0,78.123l-38.689,0l0,-32.035l-53.345,0l0,32.035l-38.103,0l0,-78.123c0,-14.605 2.703,-27.109 8.109,-37.511c5.406,-10.403 13.027,-18.325 22.862,-23.768c9.835,-5.442 21.201,-8.164 34.097,-8.164Zm26.379,83.91l0,-17.981c0,-10.609 -2.41,-18.601 -7.23,-23.974c-4.82,-5.374 -11.268,-8.06 -19.345,-8.06c-8.207,0 -14.72,2.687 -19.54,8.06c-4.82,5.374 -7.23,13.365 -7.23,23.974l0,17.981l53.345,0Z" style="fill:#fff;"/><path d="M2280.854,1419.97c-7.034,4.271 -15.567,7.647 -25.598,10.127c-10.031,2.48 -20.452,3.72 -31.264,3.72c-14.59,0 -26.998,-1.86 -37.224,-5.58c-10.226,-3.72 -17.912,-8.887 -23.057,-15.501c-5.146,-6.614 -7.718,-14.261 -7.718,-22.941c0,-7.578 1.954,-14.261 5.862,-20.047c3.908,-5.787 9.314,-10.265 16.218,-13.434c-5.341,-2.893 -9.412,-6.924 -12.213,-12.09c-2.801,-5.167 -4.201,-10.85 -4.201,-17.051c0,-7.991 2.377,-15.294 7.132,-21.907c4.755,-6.614 12.017,-11.918 21.787,-15.914c9.77,-3.996 21.82,-5.994 36.149,-5.994c8.988,0 17.847,0.896 26.575,2.687c8.728,1.791 16.414,4.202 23.057,7.234l-10.552,30.588c-12.115,-5.649 -24.621,-8.474 -37.517,-8.474c-9.249,0 -16.153,1.274 -20.713,3.823c-4.559,2.549 -6.839,6.097 -6.839,10.644c0,8.267 5.667,12.4 17,12.4l38.689,0l0,31.208l-41.23,0c-6.644,0 -11.659,1.137 -15.046,3.41c-3.387,2.273 -5.08,5.615 -5.08,10.024c0,4.685 2.475,8.336 7.425,10.954c4.95,2.618 12.636,3.927 23.057,3.927c7.425,0 15.078,-1.068 22.96,-3.203c7.881,-2.136 14.753,-5.064 20.615,-8.784l11.724,30.174Z" style="fill:#fff;"/><path d="M2404.167,1430.924l-28.333,-44.848l-27.942,44.848l-44.161,0l49.827,-73.163l-47.678,-71.509l43.574,0l27.356,41.748l26.965,-41.748l41.816,0l-47.678,69.856l50.804,74.816l-44.551,0Z" style="fill:#fff;"/><path d="M2542.278,1286.252c12.375,0 23.122,2.17 32.241,6.51c9.119,4.34 16.153,10.54 21.103,18.601c4.95,8.06 7.425,17.533 7.425,28.418c0,10.885 -2.475,20.323 -7.425,28.314c-4.95,7.991 -11.985,14.157 -21.103,18.497c-9.119,4.34 -19.866,6.51 -32.241,6.51l-23.839,0l0,37.821l-38.689,0l0,-144.672l62.528,0Zm-2.345,74.609c7.946,0 13.939,-1.826 17.977,-5.477c4.038,-3.651 6.057,-8.853 6.057,-15.604c0,-6.751 -2.019,-11.987 -6.057,-15.707c-4.038,-3.72 -10.031,-5.58 -17.977,-5.58l-21.494,0l0,42.368l21.494,0Z" style="fill:#fff;"/><path d="M2703.559,1392.482l-21.103,0l0,38.441l-38.689,0l0,-144.672l62.528,0c12.375,0 23.122,2.17 32.241,6.51c9.119,4.34 16.153,10.54 21.103,18.601c4.95,8.06 7.425,17.533 7.425,28.418c0,10.471 -2.312,19.6 -6.937,27.384c-4.624,7.785 -11.236,13.882 -19.833,18.291l29.506,45.468l-41.425,0l-24.816,-38.441Zm24.425,-52.702c0,-6.751 -2.019,-11.987 -6.057,-15.707c-4.038,-3.72 -10.031,-5.58 -17.977,-5.58l-21.494,0l0,42.368l21.494,0c7.946,0 13.939,-1.826 17.977,-5.477c4.038,-3.651 6.057,-8.853 6.057,-15.604Z" style="fill:#fff;"/><path d="M2927.879,1419.97c-7.034,4.271 -15.567,7.647 -25.598,10.127c-10.031,2.48 -20.452,3.72 -31.264,3.72c-14.59,0 -26.998,-1.86 -37.224,-5.58c-10.226,-3.72 -17.912,-8.887 -23.057,-15.501c-5.146,-6.614 -7.718,-14.261 -7.718,-22.941c0,-7.578 1.954,-14.261 5.862,-20.047c3.908,-5.787 9.314,-10.265 16.218,-13.434c-5.341,-2.893 -9.412,-6.924 -12.213,-12.09c-2.801,-5.167 -4.201,-10.85 -4.201,-17.051c0,-7.991 2.377,-15.294 7.132,-21.907c4.755,-6.614 12.017,-11.918 21.787,-15.914c9.77,-3.996 21.82,-5.994 36.149,-5.994c8.988,0 17.847,0.896 26.575,2.687c8.728,1.791 16.414,4.202 23.057,7.234l-10.552,30.588c-12.115,-5.649 -24.621,-8.474 -37.517,-8.474c-9.249,0 -16.153,1.274 -20.713,3.823c-4.559,2.549 -6.839,6.097 -6.839,10.644c0,8.267 5.667,12.4 17,12.4l38.689,0l0,31.208l-41.23,0c-6.644,0 -11.659,1.137 -15.046,3.41c-3.387,2.273 -5.08,5.615 -5.08,10.024c0,4.685 2.475,8.336 7.425,10.954c4.95,2.618 12.636,3.927 23.057,3.927c7.425,0 15.078,-1.068 22.96,-3.203c7.881,-2.136 14.753,-5.064 20.615,-8.784l11.724,30.174Z" style="fill:#fff;"/><path d="M3013.27,1433.817c-11.073,0 -21.82,-1.447 -32.241,-4.34c-10.421,-2.893 -18.889,-6.751 -25.402,-11.574l12.701,-30.174c6.123,4.271 13.222,7.716 21.299,10.334c8.077,2.618 16.023,3.927 23.839,3.927c14.85,0 22.276,-3.927 22.276,-11.78c0,-4.133 -2.117,-7.199 -6.351,-9.197c-4.234,-1.998 -11.04,-4.099 -20.419,-6.304c-10.291,-2.342 -18.889,-4.857 -25.793,-7.544c-6.904,-2.687 -12.831,-6.992 -17.782,-12.917c-4.95,-5.925 -7.425,-13.916 -7.425,-23.974c0,-8.818 2.28,-16.775 6.839,-23.871c4.559,-7.096 11.366,-12.71 20.419,-16.844c9.054,-4.133 20.159,-6.2 33.316,-6.2c8.988,0 17.847,1.068 26.575,3.203c8.728,2.136 16.414,5.27 23.057,9.404l-11.919,30.381c-13.027,-7.44 -25.663,-11.16 -37.908,-11.16c-7.686,0 -13.287,1.206 -16.804,3.617c-3.517,2.411 -5.276,5.546 -5.276,9.404c0,3.858 2.084,6.751 6.253,8.68c4.169,1.929 10.877,3.927 20.126,5.994c10.421,2.342 19.052,4.857 25.891,7.544c6.839,2.687 12.766,6.958 17.782,12.814c5.015,5.856 7.523,13.813 7.523,23.871c0,8.68 -2.28,16.534 -6.839,23.561c-4.559,7.027 -11.398,12.642 -20.517,16.844c-9.119,4.202 -20.191,6.304 -33.218,6.304Z" style="fill:#fff;"/><path d="M3161.579,1433.817c-11.073,0 -21.82,-1.447 -32.241,-4.34c-10.421,-2.893 -18.889,-6.751 -25.402,-11.574l12.701,-30.174c6.123,4.271 13.222,7.716 21.299,10.334c8.077,2.618 16.023,3.927 23.839,3.927c14.85,0 22.276,-3.927 22.276,-11.78c0,-4.133 -2.117,-7.199 -6.351,-9.197c-4.234,-1.998 -11.04,-4.099 -20.419,-6.304c-10.291,-2.342 -18.889,-4.857 -25.793,-7.544c-6.904,-2.687 -12.831,-6.992 -17.782,-12.917c-4.95,-5.925 -7.425,-13.916 -7.425,-23.974c0,-8.818 2.28,-16.775 6.839,-23.871c4.559,-7.096 11.366,-12.71 20.419,-16.844c9.054,-4.133 20.159,-6.2 33.316,-6.2c8.988,0 17.847,1.068 26.575,3.203c8.728,2.136 16.414,5.27 23.057,9.404l-11.919,30.381c-13.027,-7.44 -25.663,-11.16 -37.908,-11.16c-7.686,0 -13.287,1.206 -16.804,3.617c-3.517,2.411 -5.276,5.546 -5.276,9.404c0,3.858 2.084,6.751 6.253,8.68c4.169,1.929 10.877,3.927 20.126,5.994c10.421,2.342 19.052,4.857 25.891,7.544c6.839,2.687 12.766,6.958 17.782,12.814c5.015,5.856 7.523,13.813 7.523,23.871c0,8.68 -2.28,16.534 -6.839,23.561c-4.559,7.027 -11.398,12.642 -20.517,16.844c-9.119,4.202 -20.191,6.304 -33.218,6.304Z" style="fill:#fff;"/></g></g><g id="Simbolo"><path d="M193.248,389.921c6.174,-5.231 11.553,-11.356 17.728,-16.587c7.336,-6.216 135.601,-119.938 320.678,-93.324c27.602,3.969 196.498,28.255 299.033,179.117c232.455,342.014 -88.894,759.239 -457.777,659.911c-307.799,-82.88 -439.307,-467.364 -179.661,-729.116Z"/><path d="M248.17,415.013c8.177,-6.008 8.13,-5.963 8.831,-6.489c223.614,-167.917 445.361,-25.878 509.78,54.011c201.752,250.204 19.183,606.655 -260.212,617.659c-362.509,14.277 -529.018,-421.67 -258.399,-665.181Z" style="fill:#fff;"/><path d="M230.299,747.889c0.185,-3.191 2.311,-39.884 2.311,-39.884c39.666,-269.75 354.117,-309.317 474.749,-141.629c179.75,249.866 -126.172,555.873 -365.997,387.054c-116.588,-82.069 -110.387,-199.511 -111.064,-205.542Z"/><path d="M282.979,708.175c1.862,-9.729 13.834,-72.294 51.671,-112.516c172.265,-183.123 443.325,11.079 353.594,215.949c-96.044,219.282 -426.633,159.877 -405.265,-103.433Z" style="fill:#fff;"/><path d="M665.386,172.862c-79.556,-111.848 61.061,-204.507 136.719,-136.571c102.93,92.424 -44.017,237.361 -136.719,136.571Z"/><path d="M868.334,405.556c-115.594,-23.035 -92.929,-164.722 -14.408,-186.142c133.423,-36.397 184.029,191.152 14.408,186.142Z"/><path d="M354.792,747.944c16.482,-70.193 70.608,56.885 122.615,72.522c70.883,21.312 82.989,-2.082 98.781,-0.416c35.738,3.771 -27.719,78.568 -103.993,55.505c-101.698,-30.751 -115.183,-113.918 -117.404,-127.611Z"/><path d="M620.379,188.978c84.011,26.833 -0.144,123.344 -43.719,67.759c-13.495,-17.215 -13.286,-69.748 43.719,-67.759Z"/><path d="M556.13,588.851c69.425,12.18 3.939,97.386 -27.538,53.209c-3.027,-4.248 -23.567,-48.172 27.538,-53.209Z"/><path d="M620.997,719.015c1.817,-0.564 16.238,-5.04 23.777,0.037c13.594,9.155 11.138,21.894 10.74,23.956c-7.094,36.787 -74.934,16.858 -34.517,-23.993Z"/></g></g></svg>