<?xml version="1.0" encoding="UTF-8" standalone="no"?><!DOCTYPE svg PUBLIC "-//W3C//DTD SVG 1.1//EN" "http://www.w3.org/Graphics/SVG/1.1/DTD/svg11.dtd"><svg width="100%" height="100%" viewBox="0 0 3508 2481" version="1.1" xmlns="http://www.w3.org/2000/svg" xmlns:xlink="http://www.w3.org/1999/xlink" xml:space="preserve" xmlns:serif="http://www.serif.com/" style="fill-rule:evenodd;clip-rule:evenodd;stroke-linejoin:round;stroke-miterlimit:2;"><g id="Logotipo"><g><path d="M1256.255,1437.375l0,-303.207c0,-44.264 -26.833,-71.56 -70.533,-71.56c-43.7,0 -70.533,27.296 -70.533,71.56l0,354.848c0,45.002 28.366,72.298 75.133,72.298l188.631,0c42.166,0 68.233,-23.607 68.233,-61.969c0,-38.362 -26.066,-61.969 -68.233,-61.969l-122.698,0Z" style="fill:#0e5fb8;"/><g><path d="M1537.727,1202.452c-39.866,0 -64.399,25.083 -64.399,65.658l0,233.123c0,40.575 24.533,65.658 64.399,65.658c39.866,0 64.399,-25.083 64.399,-65.658l0,-233.123c0,-40.575 -24.533,-65.658 -64.399,-65.658Z" style="fill:#0e5fb8;"/><path d="M2075.156,1198.026c-50.6,0 -88.933,15.492 -113.466,43.526l-1.533,0c-22.233,-28.034 -55.966,-43.526 -99.666,-43.526c-42.933,0 -72.066,14.755 -92.766,42.788l-1.533,0c-9.2,-23.607 -29.9,-38.362 -59.8,-38.362c-39.866,0 -64.399,25.083 -64.399,65.658l0,233.123c0,40.575 24.533,65.658 64.399,65.658c39.866,0 64.399,-25.083 64.399,-65.658l0,-124.676c0,-42.788 16.1,-64.92 48.3,-64.92c29.9,0 45.233,19.181 45.233,56.805l0,132.791c0,40.575 24.533,65.658 64.399,65.658c39.866,0 64.399,-25.083 64.399,-65.658l0,-124.676c0,-42.788 16.1,-64.92 48.3,-64.92c29.9,0 45.233,19.181 45.233,56.805l0,132.791c0,40.575 24.533,65.658 64.399,65.658c39.866,0 64.399,-25.083 64.399,-65.658l0,-147.546c0,-102.544 -48.3,-155.661 -140.299,-155.661Z" style="fill:#0e5fb8;"/><path d="M2477.653,1198.026c-43.7,0 -79.733,15.492 -103.499,41.313l-1.533,0c-9.2,-22.87 -29.133,-36.886 -59.033,-36.886c-39.866,0 -64.399,25.083 -64.399,65.658l0,341.34c0,40.575 24.533,65.658 64.399,65.658c39.866,0 64.399,-25.083 64.399,-65.658l0,-73.544l1.533,0c23.766,22.87 57.5,35.411 98.133,35.411c105.032,0 173.265,-73.035 173.265,-186.646c0,-113.61 -68.233,-186.646 -173.265,-186.646Zm-27.6,259.681c-41.4,0 -72.066,-30.985 -72.066,-73.035c0,-42.051 30.666,-73.035 72.066,-73.035c40.633,0 68.999,29.509 68.999,73.035c0,43.526 -28.366,73.035 -68.999,73.035Z" style="fill:#0e5fb8;"/><path d="M2666.252,1384.672c0,110.659 82.033,186.646 202.398,186.646c120.366,0 202.398,-75.986 202.398,-186.646c0,-110.659 -82.033,-186.646 -202.398,-186.646c-120.366,0 -202.398,75.986 -202.398,186.646Zm131.866,0c0,-43.526 28.366,-73.035 70.533,-73.035c42.166,0 70.533,29.509 70.533,73.035c0,43.526 -28.366,73.035 -70.533,73.035c-42.166,0 -70.533,-29.509 -70.533,-73.035Z" style="fill:#0e5fb8;"/></g><g><path d="M1341.911,686.063c-37.98,0 -61.459,21.264 -61.459,55.817c0,34.553 23.479,55.817 61.459,55.817l102.892,0l0,272.441c0,40.534 24.169,65.12 63.53,65.12c39.361,0 63.53,-24.586 63.53,-65.12l0,-272.441l102.892,0c37.98,0 61.459,-21.264 61.459,-55.817c0,-34.553 -23.479,-55.817 -61.459,-55.817l-332.844,0Z" style="fill:#0e5fb8;"/><path d="M1954.363,807c-26.931,0 -44.886,12.625 -53.172,33.224l-1.381,0c-21.407,-23.257 -53.863,-37.211 -93.224,-37.211c-94.605,0 -156.064,65.784 -156.064,168.116c0,102.331 61.459,168.116 156.064,168.116c39.361,0 71.817,-13.954 93.224,-37.211l1.381,0c8.287,20.599 26.241,33.224 53.172,33.224c35.909,0 58.006,-22.593 58.006,-59.14l0,-209.979c0,-36.547 -22.098,-59.14 -58.006,-59.14Zm-122.918,229.913c-36.599,0 -62.149,-26.58 -62.149,-65.784c0,-39.205 25.55,-65.784 62.149,-65.784c37.29,0 64.912,27.909 64.912,65.784c0,37.876 -27.622,65.784 -64.912,65.784Zm104.273,-359.489c0,-25.251 -18.645,-44.521 -45.576,-44.521c-12.43,0 -23.479,4.651 -33.146,12.625l-65.602,57.146c-10.358,8.638 -15.192,19.27 -15.192,32.56c0,22.593 15.883,40.534 40.742,40.534c10.358,0 20.026,-2.658 29.694,-9.967l70.436,-51.83c10.358,-7.309 18.645,-19.27 18.645,-36.547Z" style="fill:#0e5fb8;"/></g><path d="M3170.613,1138.517l-28.125,195.883c-5.694,38.713 11.675,66.737 49.352,73.797c37.677,7.06 64.014,-12.774 72.722,-50.922l44.703,-192.776l1.63,-8.701c8.288,-44.232 -13.059,-76.003 -56.011,-84.051c-42.952,-8.048 -74.353,13.839 -82.642,58.07l-1.63,8.701Zm17.152,291.433c-42.952,-8.048 -75.861,13.556 -83.605,54.888c-7.745,41.331 15.109,73.385 58.061,81.433c42.952,8.048 75.861,-13.556 83.605,-54.888c7.745,-41.331 -15.109,-73.385 -58.061,-81.433Z" style="fill:#0e5fb8;"/></g><g id="Escrita-Lavanderia" serif:id="Escrita Lavanderia"><path d="M3359.424,1739.102l0,219.385c0,17.723 -14.389,32.112 -32.112,32.112l-2825.646,0c-17.723,0 -32.112,-14.389 -32.112,-32.112l0,-219.385c0,-17.723 14.389,-32.112 32.112,-32.112l2825.646,0c17.723,0 32.112,14.389 32.112,32.112Z" style="fill:#f4b73f;"/><g><path d="M541.508,1775.39l38.364,0l0,111.281l64.716,0l0,32.175l-103.08,0l0,-143.456Z" style="fill:#f0528a;fill-rule:nonzero;"/><path d="M744.761,1772.521c12.788,0 24.058,2.698 33.811,8.095c9.753,5.397 17.309,13.253 22.67,23.568c5.361,10.315 8.041,22.714 8.041,37.196l0,77.466l-38.364,0l0,-31.765l-52.896,0l0,31.765l-37.783,0l0,-77.466c0,-14.482 2.68,-26.881 8.041,-37.196c5.361,-10.315 12.917,-18.171 22.67,-23.568c9.753,-5.397 21.023,-8.095 33.811,-8.095Zm26.158,83.205l0,-17.83c0,-10.52 -2.39,-18.444 -7.169,-23.773c-4.779,-5.328 -11.173,-7.993 -19.182,-7.993c-8.138,0 -14.597,2.664 -19.376,7.993c-4.779,5.328 -7.169,13.253 -7.169,23.773l0,17.83l52.896,0Z" style="fill:#f0528a;fill-rule:nonzero;"/><path d="M990.791,1775.39l-58.128,143.456l-37.783,0l-57.934,-143.456l41.465,0l36.814,93.452l37.589,-93.452l37.977,0Z" style="fill:#f0528a;fill-rule:nonzero;"/><path d="M1082.976,1772.521c12.788,0 24.058,2.698 33.811,8.095c9.753,5.397 17.309,13.253 22.67,23.568c5.361,10.315 8.041,22.714 8.041,37.196l0,77.466l-38.364,0l0,-31.765l-52.896,0l0,31.765l-37.783,0l0,-77.466c0,-14.482 2.68,-26.881 8.041,-37.196c5.361,-10.315 12.917,-18.171 22.67,-23.568c9.753,-5.397 21.023,-8.095 33.811,-8.095Zm26.158,83.205l0,-17.83c0,-10.52 -2.39,-18.444 -7.169,-23.773c-4.779,-5.328 -11.173,-7.993 -19.182,-7.993c-8.138,0 -14.597,2.664 -19.376,7.993c-4.779,5.328 -7.169,13.253 -7.169,23.773l0,17.83l52.896,0Z" style="fill:#f0528a;fill-rule:nonzero;"/><path d="M1272.279,1772.521c16.147,0 28.676,5.431 37.589,16.293c8.913,10.862 13.369,26.335 13.369,46.418l0,83.615l-38.364,0l0,-82.385c0,-10.11 -2.164,-17.693 -6.491,-22.748c-4.327,-5.055 -10.366,-7.583 -18.117,-7.583c-8.009,0 -14.467,2.698 -19.376,8.095c-4.909,5.397 -7.363,13.492 -7.363,24.285l0,80.336l-38.364,0l0,-143.456l37.202,0l0,16.395c9.171,-12.843 22.476,-19.264 39.914,-19.264Z" style="fill:#f0528a;fill-rule:nonzero;"/><path d="M1370.902,1775.39l64.134,0c14.855,0 28.031,2.937 39.527,8.812c11.496,5.875 20.409,14.209 26.739,25.002c6.329,10.793 9.494,23.431 9.494,37.913c0,14.482 -3.165,27.12 -9.494,37.913c-6.329,10.793 -15.242,19.128 -26.739,25.002c-11.496,5.875 -24.672,8.812 -39.527,8.812l-64.134,0l0,-143.456Zm62.584,111.076c11.626,0 20.958,-3.484 27.998,-10.452c7.04,-6.968 10.56,-16.6 10.56,-28.896c0,-12.296 -3.52,-21.928 -10.56,-28.896c-7.04,-6.968 -16.373,-10.452 -27.998,-10.452l-24.22,0l0,78.696l24.22,0Z" style="fill:#f0528a;fill-rule:nonzero;"/><path d="M1669.292,1907.985c-6.975,4.235 -15.436,7.583 -25.382,10.042c-9.946,2.459 -20.28,3.689 -31.002,3.689c-14.467,0 -26.771,-1.844 -36.911,-5.533c-10.14,-3.689 -17.761,-8.812 -22.864,-15.37c-5.102,-6.558 -7.653,-14.141 -7.653,-22.748c0,-7.514 1.938,-14.141 5.813,-19.879c3.875,-5.738 9.236,-10.179 16.082,-13.321c-5.296,-2.869 -9.333,-6.865 -12.11,-11.989c-2.777,-5.123 -4.166,-10.759 -4.166,-16.907c0,-7.924 2.357,-15.165 7.072,-21.723c4.715,-6.558 11.916,-11.818 21.604,-15.78c9.688,-3.962 21.636,-5.943 35.845,-5.943c8.913,0 17.697,0.888 26.351,2.664c8.655,1.776 16.276,4.167 22.864,7.173l-10.463,30.331c-12.013,-5.602 -24.414,-8.402 -37.202,-8.402c-9.171,0 -16.017,1.264 -20.538,3.791c-4.521,2.528 -6.782,6.046 -6.782,10.554c0,8.198 5.619,12.296 16.857,12.296l38.364,0l0,30.946l-40.883,0c-6.588,0 -11.561,1.127 -14.919,3.381c-3.358,2.254 -5.038,5.567 -5.038,9.939c0,4.645 2.454,8.266 7.363,10.862c4.909,2.596 12.53,3.894 22.864,3.894c7.363,0 14.952,-1.059 22.767,-3.177c7.815,-2.118 14.629,-5.021 20.442,-8.71l11.626,29.921Z" style="fill:#f0528a;fill-rule:nonzero;"/><path d="M1765.59,1880.728l-20.926,0l0,38.118l-38.364,0l0,-143.456l62.003,0c12.271,0 22.928,2.152 31.97,6.456c9.042,4.304 16.017,10.452 20.926,18.444c4.909,7.993 7.363,17.386 7.363,28.179c0,10.384 -2.293,19.435 -6.878,27.154c-4.586,7.719 -11.141,13.765 -19.667,18.137l29.258,45.086l-41.077,0l-24.607,-38.118Zm24.22,-52.259c0,-6.695 -2.002,-11.886 -6.007,-15.575c-4.004,-3.689 -9.946,-5.533 -17.826,-5.533l-21.314,0l0,42.012l21.314,0c7.88,0 13.822,-1.81 17.826,-5.431c4.004,-3.621 6.007,-8.778 6.007,-15.473Z" style="fill:#f0528a;fill-rule:nonzero;"/><path d="M1925.442,1806.746l0,80.745l21.895,0l0,31.355l-82.348,0l0,-31.355l22.089,0l0,-80.745l-22.089,0l0,-31.355l82.348,0l0,31.355l-21.895,0Z" style="fill:#f0528a;fill-rule:nonzero;"/><path d="M2053.129,1772.521c12.788,0 24.058,2.698 33.811,8.095c9.753,5.397 17.309,13.253 22.67,23.568c5.361,10.315 8.041,22.714 8.041,37.196l0,77.466l-38.364,0l0,-31.765l-52.896,0l0,31.765l-37.783,0l0,-77.466c0,-14.482 2.68,-26.881 8.041,-37.196c5.361,-10.315 12.917,-18.171 22.67,-23.568c9.753,-5.397 21.023,-8.095 33.811,-8.095Zm26.158,83.205l0,-17.83c0,-10.52 -2.39,-18.444 -7.169,-23.773c-4.779,-5.328 -11.173,-7.993 -19.182,-7.993c-8.138,0 -14.597,2.664 -19.376,7.993c-4.779,5.328 -7.169,13.253 -7.169,23.773l0,17.83l52.896,0Z" style="fill:#f0528a;fill-rule:nonzero;"/><path d="M2360.044,1907.985c-6.975,4.235 -15.436,7.583 -25.382,10.042c-9.946,2.459 -20.28,3.689 -31.002,3.689c-14.467,0 -26.771,-1.844 -36.911,-5.533c-10.14,-3.689 -17.761,-8.812 -22.864,-15.37c-5.102,-6.558 -7.653,-14.141 -7.653,-22.748c0,-7.514 1.938,-14.141 5.813,-19.879c3.875,-5.738 9.236,-10.179 16.082,-13.321c-5.296,-2.869 -9.333,-6.865 -12.11,-11.989c-2.777,-5.123 -4.166,-10.759 -4.166,-16.907c0,-7.924 2.357,-15.165 7.072,-21.723c4.715,-6.558 11.916,-11.818 21.604,-15.78c9.688,-3.962 21.636,-5.943 35.845,-5.943c8.913,0 17.697,0.888 26.351,2.664c8.655,1.776 16.276,4.167 22.864,7.173l-10.463,30.331c-12.013,-5.602 -24.414,-8.402 -37.202,-8.402c-9.171,0 -16.017,1.264 -20.538,3.791c-4.521,2.528 -6.782,6.046 -6.782,10.554c0,8.198 5.619,12.296 16.857,12.296l38.364,0l0,30.946l-40.883,0c-6.588,0 -11.561,1.127 -14.919,3.381c-3.358,2.254 -5.038,5.567 -5.038,9.939c0,4.645 2.454,8.266 7.363,10.862c4.909,2.596 12.53,3.894 22.864,3.894c7.363,0 14.952,-1.059 22.767,-3.177c7.815,-2.118 14.629,-5.021 20.442,-8.71l11.626,29.921Z" style="fill:#f0528a;fill-rule:nonzero;"/><path d="M2482.321,1918.847l-28.095,-44.472l-27.708,44.472l-43.79,0l49.409,-72.548l-47.277,-70.908l43.208,0l27.126,41.397l26.739,-41.397l41.465,0l-47.277,69.269l50.377,74.187l-44.177,0Z" style="fill:#f0528a;fill-rule:nonzero;"/><path d="M2619.272,1775.39c12.271,0 22.928,2.152 31.97,6.456c9.042,4.304 16.017,10.452 20.926,18.444c4.909,7.993 7.363,17.386 7.363,28.179c0,10.793 -2.454,20.152 -7.363,28.076c-4.909,7.924 -11.884,14.038 -20.926,18.342c-9.042,4.304 -19.699,6.456 -31.97,6.456l-23.639,0l0,37.504l-38.364,0l0,-143.456l62.003,0Zm-2.325,73.983c7.88,0 13.822,-1.81 17.826,-5.431c4.004,-3.621 6.007,-8.778 6.007,-15.473c0,-6.695 -2.002,-11.886 -6.007,-15.575c-4.004,-3.689 -9.946,-5.533 -17.826,-5.533l-21.314,0l0,42.012l21.314,0Z" style="fill:#f0528a;fill-rule:nonzero;"/><path d="M2779.198,1880.728l-20.926,0l0,38.118l-38.364,0l0,-143.456l62.003,0c12.271,0 22.928,2.152 31.97,6.456c9.042,4.304 16.017,10.452 20.926,18.444c4.909,7.993 7.363,17.386 7.363,28.179c0,10.384 -2.293,19.435 -6.878,27.154c-4.586,7.719 -11.141,13.765 -19.667,18.137l29.258,45.086l-41.077,0l-24.607,-38.118Zm24.22,-52.259c0,-6.695 -2.002,-11.886 -6.007,-15.575c-4.004,-3.689 -9.946,-5.533 -17.826,-5.533l-21.314,0l0,42.012l21.314,0c7.88,0 13.822,-1.81 17.826,-5.431c4.004,-3.621 6.007,-8.778 6.007,-15.473Z" style="fill:#f0528a;fill-rule:nonzero;"/><path d="M3001.633,1907.985c-6.975,4.235 -15.436,7.583 -25.382,10.042c-9.946,2.459 -20.28,3.689 -31.002,3.689c-14.467,0 -26.771,-1.844 -36.911,-5.533c-10.14,-3.689 -17.761,-8.812 -22.864,-15.37c-5.102,-6.558 -7.653,-14.141 -7.653,-22.748c0,-7.514 1.938,-14.141 5.813,-19.879c3.875,-5.738 9.236,-10.179 16.082,-13.321c-5.296,-2.869 -9.333,-6.865 -12.11,-11.989c-2.777,-5.123 -4.166,-10.759 -4.166,-16.907c0,-7.924 2.357,-15.165 7.072,-21.723c4.715,-6.558 11.916,-11.818 21.604,-15.78c9.688,-3.962 21.636,-5.943 35.845,-5.943c8.913,0 17.697,0.888 26.351,2.664c8.655,1.776 16.276,4.167 22.864,7.173l-10.463,30.331c-12.013,-5.602 -24.414,-8.402 -37.202,-8.402c-9.171,0 -16.017,1.264 -20.538,3.791c-4.521,2.528 -6.782,6.046 -6.782,10.554c0,8.198 5.619,12.296 16.857,12.296l38.364,0l0,30.946l-40.883,0c-6.588,0 -11.561,1.127 -14.919,3.381c-3.358,2.254 -5.038,5.567 -5.038,9.939c0,4.645 2.454,8.266 7.363,10.862c4.909,2.596 12.53,3.894 22.864,3.894c7.363,0 14.952,-1.059 22.767,-3.177c7.815,-2.118 14.629,-5.021 20.442,-8.71l11.626,29.921Z" style="fill:#f0528a;fill-rule:nonzero;"/><path d="M3086.306,1921.716c-10.98,0 -21.636,-1.435 -31.97,-4.304c-10.334,-2.869 -18.73,-6.695 -25.189,-11.477l12.594,-29.921c6.071,4.235 13.111,7.651 21.12,10.247c8.009,2.596 15.888,3.894 23.639,3.894c14.726,0 22.089,-3.894 22.089,-11.681c0,-4.099 -2.099,-7.139 -6.297,-9.12c-4.198,-1.981 -10.947,-4.065 -20.248,-6.251c-10.205,-2.323 -18.73,-4.816 -25.576,-7.48c-6.846,-2.664 -12.724,-6.934 -17.632,-12.809c-4.909,-5.875 -7.363,-13.799 -7.363,-23.773c0,-8.744 2.261,-16.634 6.782,-23.67c4.521,-7.036 11.27,-12.604 20.248,-16.702c8.978,-4.099 19.99,-6.148 33.036,-6.148c8.913,0 17.697,1.059 26.351,3.177c8.655,2.118 16.276,5.226 22.864,9.325l-11.819,30.126c-12.917,-7.378 -25.447,-11.067 -37.589,-11.067c-7.621,0 -13.176,1.195 -16.663,3.586c-3.488,2.391 -5.232,5.499 -5.232,9.325c0,3.826 2.067,6.695 6.2,8.607c4.134,1.913 10.786,3.894 19.957,5.943c10.334,2.323 18.892,4.816 25.673,7.48c6.782,2.664 12.659,6.9 17.632,12.706c4.973,5.807 7.46,13.697 7.46,23.67c0,8.607 -2.261,16.395 -6.782,23.363c-4.521,6.968 -11.303,12.535 -20.345,16.702c-9.042,4.167 -20.022,6.251 -32.939,6.251Z" style="fill:#f0528a;fill-rule:nonzero;"/><path d="M3233.37,1921.716c-10.98,0 -21.636,-1.435 -31.97,-4.304c-10.334,-2.869 -18.73,-6.695 -25.189,-11.477l12.594,-29.921c6.071,4.235 13.111,7.651 21.12,10.247c8.009,2.596 15.888,3.894 23.639,3.894c14.726,0 22.089,-3.894 22.089,-11.681c0,-4.099 -2.099,-7.139 -6.297,-9.12c-4.198,-1.981 -10.947,-4.065 -20.248,-6.251c-10.205,-2.323 -18.73,-4.816 -25.576,-7.48c-6.846,-2.664 -12.724,-6.934 -17.632,-12.809c-4.909,-5.875 -7.363,-13.799 -7.363,-23.773c0,-8.744 2.261,-16.634 6.782,-23.67c4.521,-7.036 11.27,-12.604 20.248,-16.702c8.978,-4.099 19.99,-6.148 33.036,-6.148c8.913,0 17.697,1.059 26.351,3.177c8.655,2.118 16.276,5.226 22.864,9.325l-11.819,30.126c-12.917,-7.378 -25.447,-11.067 -37.589,-11.067c-7.621,0 -13.176,1.195 -16.663,3.586c-3.488,2.391 -5.232,5.499 -5.232,9.325c0,3.826 2.067,6.695 6.2,8.607c4.134,1.913 10.786,3.894 19.957,5.943c10.334,2.323 18.892,4.816 25.673,7.48c6.782,2.664 12.659,6.9 17.632,12.706c4.973,5.807 7.46,13.697 7.46,23.67c0,8.607 -2.261,16.395 -6.782,23.363c-4.521,6.968 -11.303,12.535 -20.345,16.702c-9.042,4.167 -20.022,6.251 -32.939,6.251Z" style="fill:#f0528a;fill-rule:nonzero;"/></g></g><g id="Simbolo"><path d="M289.978,886.591c6.123,-5.187 11.456,-11.261 17.579,-16.448c7.274,-6.163 134.461,-118.93 317.984,-92.54c27.37,3.936 194.847,28.018 296.52,177.612c230.502,339.14 -88.147,752.86 -453.931,654.367c-305.212,-82.184 -435.616,-463.437 -178.152,-722.99Z" style="fill:#0d60ba;"/><path d="M344.439,911.472c8.108,-5.958 8.061,-5.913 8.757,-6.435c221.735,-166.506 441.619,-25.661 505.497,53.558c200.057,248.102 19.022,601.558 -258.025,612.469c-359.463,14.157 -524.574,-418.127 -256.228,-659.592Z" style="fill:#53c4f6;"/><path d="M326.717,1241.551c0.183,-3.164 2.292,-39.549 2.292,-39.549c39.333,-267.484 351.141,-306.718 470.76,-140.439c178.239,247.767 -125.112,551.203 -362.922,383.803c-115.608,-81.38 -109.459,-197.835 -110.131,-203.815Z" style="fill:#0c61bb;"/><path d="M378.955,1202.17c1.846,-9.647 13.718,-71.687 51.237,-111.57c170.818,-181.585 439.601,10.986 350.623,214.135c-95.237,217.439 -423.048,158.534 -401.86,-102.564Z" style="fill:#0ca6e6;"/><path d="M758.149,671.354c-78.888,-110.908 60.548,-202.788 135.571,-135.423c102.065,91.648 -43.647,235.366 -135.571,135.423Z" style="fill:#f3558c;"/><path d="M959.392,902.094c-114.623,-22.842 -92.148,-163.338 -14.287,-184.578c132.302,-36.091 182.482,189.546 14.287,184.578Z" style="fill:#f4b73f;"/><path d="M450.165,1241.605c16.343,-69.604 70.014,56.407 121.585,71.913c70.288,21.133 82.291,-2.065 97.951,-0.412c35.438,3.739 -27.486,77.908 -103.119,55.038c-100.844,-30.493 -114.216,-112.961 -116.417,-126.539Z" style="fill:#54c3f5;"/><path d="M713.52,687.335c83.305,26.607 -0.142,122.307 -43.351,67.189c-13.382,-17.07 -13.174,-69.162 43.351,-67.189Z" style="fill:#f4be4e;"/><path d="M649.811,1083.849c68.842,12.077 3.906,96.568 -27.307,52.762c-3.001,-4.212 -23.369,-47.768 27.307,-52.762Z" style="fill:#f3f6f4;"/><path d="M714.133,1212.919c1.801,-0.559 16.102,-4.998 23.577,0.037c13.48,9.078 11.044,21.71 10.65,23.755c-7.034,36.478 -74.304,16.717 -34.227,-23.792Z" style="fill:#f3f8f6;"/></g></g></svg>