<?xml version="1.0" encoding="UTF-8" standalone="no"?><!DOCTYPE svg PUBLIC "-//W3C//DTD SVG 1.1//EN" "http://www.w3.org/Graphics/SVG/1.1/DTD/svg11.dtd"><svg width="100%" height="100%" viewBox="0 0 3308 1524" version="1.1" xmlns="http://www.w3.org/2000/svg" xmlns:xlink="http://www.w3.org/1999/xlink" xml:space="preserve" xmlns:serif="http://www.serif.com/" style="fill-rule:evenodd;clip-rule:evenodd;stroke-linejoin:round;stroke-miterlimit:2;"><g><g id="Escrita-Tá-Limpo-" serif:id="Escrita Tá Limpo!"><path d="M1149.008,946.997l0,-305.732c0,-44.632 -27.057,-72.156 -71.12,-72.156c-44.064,0 -71.12,27.523 -71.12,72.156l0,357.803c0,45.376 28.603,72.9 75.758,72.9l185.076,0c42.517,0 68.801,-23.804 68.801,-62.485c0,-38.681 -26.284,-62.485 -68.801,-62.485l-118.594,0Z" style="fill:#fff;"/><g><path d="M1432.825,710.119c-40.198,0 -64.936,25.292 -64.936,66.205l0,235.064c0,40.913 24.737,66.205 64.936,66.205c40.198,0 64.936,-25.292 64.936,-66.205l0,-235.064c0,-40.913 -24.737,-66.205 -64.936,-66.205Z" style="fill:#fff;"/><path d="M1974.729,705.655c-51.021,0 -89.673,15.621 -114.411,43.889l-1.546,0c-22.418,-28.267 -56.432,-43.889 -100.496,-43.889c-43.29,0 -72.666,14.877 -93.538,43.145l-1.546,0c-9.277,-23.804 -30.149,-38.681 -60.297,-38.681c-40.198,0 -64.936,25.292 -64.936,66.205l0,235.064c0,40.913 24.737,66.205 64.936,66.205c40.198,0 64.936,-25.292 64.936,-66.205l0,-125.715c0,-43.145 16.234,-65.461 48.702,-65.461c30.149,0 45.61,19.341 45.61,57.278l0,133.897c0,40.913 24.737,66.205 64.936,66.205c40.198,0 64.936,-25.292 64.936,-66.205l0,-125.715c0,-43.145 16.234,-65.461 48.702,-65.461c30.149,0 45.61,19.341 45.61,57.278l0,133.897c0,40.913 24.737,66.205 64.936,66.205c40.198,0 64.936,-25.292 64.936,-66.205l0,-148.775c0,-103.398 -48.702,-156.957 -141.467,-156.957Z" style="fill:#fff;"/><path d="M2380.577,705.655c-44.064,0 -80.397,15.621 -104.361,41.657l-1.546,0c-9.277,-23.06 -29.376,-37.194 -59.524,-37.194c-40.198,0 -64.936,25.292 -64.936,66.205l-0,340.424c0,40.913 24.737,66.205 64.936,66.205c40.198,0 64.936,-25.292 64.936,-66.205l0,-70.398l1.546,0c23.964,23.06 57.978,35.706 98.95,35.706c105.907,0 174.708,-73.643 174.708,-188.2c0,-114.556 -68.801,-188.2 -174.708,-188.2Zm-27.83,261.843c-41.744,0 -72.666,-31.243 -72.666,-73.643c0,-42.401 30.922,-73.643 72.666,-73.643c40.971,0 69.574,29.755 69.574,73.643c0,43.889 -28.603,73.643 -69.574,73.643Z" style="fill:#fff;"/><path d="M2570.746,893.855c0,111.581 82.716,188.2 204.084,188.2c121.368,0 204.084,-76.619 204.084,-188.2c0,-111.581 -82.716,-188.2 -204.084,-188.2c-121.368,0 -204.084,76.619 -204.084,188.2Zm132.964,0c0,-43.889 28.603,-73.643 71.12,-73.643c42.517,0 71.12,29.755 71.12,73.643c0,43.889 -28.603,73.643 -71.12,73.643c-42.517,0 -71.12,-29.755 -71.12,-73.643Z" style="fill:#fff;"/></g><g><path d="M1235.379,189.43c-38.296,0 -61.971,21.441 -61.971,56.282c0,34.841 23.674,56.282 61.971,56.282l103.748,0l0,274.709c0,40.871 24.37,65.662 64.059,65.662c39.689,0 64.059,-24.791 64.059,-65.662l0,-274.709l103.748,0c38.296,0 61.971,-21.441 61.971,-56.282c0,-34.841 -23.674,-56.282 -61.971,-56.282l-335.616,0Z" style="fill:#fff;"/><path d="M1852.929,311.374c-27.156,0 -45.259,12.73 -53.615,33.501l-1.393,0c-21.585,-23.451 -54.311,-37.521 -94,-37.521c-95.393,0 -157.363,66.332 -157.363,169.516c0,103.184 61.971,169.516 157.363,169.516c39.689,0 72.415,-14.07 94,-37.521l1.393,0c8.356,20.771 26.459,33.501 53.615,33.501c36.208,0 58.489,-22.781 58.489,-59.632l0,-211.727c0,-36.851 -22.282,-59.632 -58.489,-59.632Zm-123.941,231.828c-36.904,0 -62.667,-26.801 -62.667,-66.332c0,-39.531 25.763,-66.332 62.667,-66.332c37.6,0 65.452,28.141 65.452,66.332c0,38.191 -27.852,66.332 -65.452,66.332Zm105.141,-362.482c0,-25.461 -18.8,-44.892 -45.956,-44.892c-12.533,0 -23.674,4.69 -33.422,12.73l-66.148,57.622c-10.444,8.71 -15.319,19.431 -15.319,32.831c0,22.781 16.015,40.871 41.082,40.871c10.444,0 20.193,-2.68 29.941,-10.05l71.022,-52.262c10.444,-7.37 18.8,-19.431 18.8,-36.851Z" style="fill:#fff;"/></g><path d="M3079.307,645.65l-28.359,197.514c-5.742,39.036 11.772,67.292 49.763,74.411c37.991,7.119 64.547,-12.88 73.328,-51.346l45.075,-194.381l1.644,-8.774c8.357,-44.6 -13.167,-76.636 -56.477,-84.751c-43.31,-8.115 -74.973,13.954 -83.33,58.554l-1.644,8.774Zm17.294,293.859c-43.31,-8.115 -76.492,13.669 -84.301,55.345c-7.809,41.675 15.235,73.996 58.545,82.111c43.31,8.115 76.492,-13.669 84.301,-55.345c7.809,-41.675 -15.235,-73.996 -58.545,-82.111Z" style="fill:#fff;"/></g><g id="Escrita-Lavanderia" serif:id="Escrita Lavanderia"><path d="M3269.69,1251.237l0,221.212c0,17.87 -14.509,32.379 -32.379,32.379l-2849.175,0c-17.87,0 -32.379,-14.509 -32.379,-32.379l0,-221.212c0,-17.87 14.509,-32.379 32.379,-32.379l2849.175,0c17.87,0 32.379,14.509 32.379,32.379Z" style="fill:#f4b73f;"/><g><path d="M428.31,1287.827l38.684,0l0,112.208l65.255,0l0,32.443l-103.938,0l0,-144.651Z" style="fill:#f0528a;"/><path d="M633.256,1284.934c12.895,0 24.259,2.721 34.093,8.162c9.834,5.442 17.453,13.363 22.859,23.764c5.405,10.401 8.108,22.903 8.108,37.506l0,78.112l-38.684,0l0,-32.03l-53.337,0l0,32.03l-38.098,0l0,-78.112c0,-14.603 2.703,-27.105 8.108,-37.506c5.405,-10.401 13.025,-18.322 22.859,-23.764c9.834,-5.442 21.198,-8.162 34.093,-8.162Zm26.375,83.898l0,-17.978c0,-10.608 -2.41,-18.598 -7.229,-23.971c-4.819,-5.373 -11.266,-8.059 -19.342,-8.059c-8.206,0 -14.718,2.686 -19.537,8.059c-4.819,5.373 -7.229,13.363 -7.229,23.971l0,17.978l53.337,0Z" style="fill:#f0528a;"/><path d="M881.335,1287.827l-58.612,144.651l-38.098,0l-58.416,-144.651l41.81,0l37.121,94.23l37.902,-94.23l38.293,0Z" style="fill:#f0528a;"/><path d="M974.287,1284.934c12.895,0 24.259,2.721 34.093,8.162c9.834,5.442 17.453,13.363 22.859,23.764c5.405,10.401 8.108,22.903 8.108,37.506l0,78.112l-38.684,0l0,-32.03l-53.337,0l0,32.03l-38.098,0l0,-78.112c0,-14.603 2.703,-27.105 8.108,-37.506c5.405,-10.401 13.025,-18.322 22.859,-23.764c9.834,-5.442 21.198,-8.162 34.093,-8.162Zm26.375,83.898l0,-17.978c0,-10.608 -2.41,-18.598 -7.229,-23.971c-4.819,-5.373 -11.266,-8.059 -19.342,-8.059c-8.206,0 -14.718,2.686 -19.537,8.059c-4.819,5.373 -7.229,13.363 -7.229,23.971l0,17.978l53.337,0Z" style="fill:#f0528a;"/><path d="M1165.166,1284.934c16.281,0 28.915,5.476 37.902,16.428c8.987,10.952 13.481,26.554 13.481,46.805l0,84.311l-38.684,0l0,-83.071c0,-10.194 -2.182,-17.84 -6.545,-22.938c-4.363,-5.097 -10.452,-7.646 -18.267,-7.646c-8.075,0 -14.588,2.721 -19.537,8.162c-4.949,5.442 -7.424,13.604 -7.424,24.487l0,81.005l-38.684,0l0,-144.651l37.512,0l0,16.532c9.248,-12.95 22.663,-19.425 40.247,-19.425Z" style="fill:#f0528a;"/><path d="M1264.611,1287.827l64.668,0c14.979,0 28.264,2.962 39.856,8.886c11.592,5.924 20.579,14.327 26.961,25.211c6.382,10.883 9.573,23.626 9.573,38.229c0,14.603 -3.191,27.346 -9.573,38.229c-6.382,10.883 -15.369,19.287 -26.961,25.211c-11.592,5.924 -24.877,8.886 -39.856,8.886l-64.668,0l0,-144.651Zm63.105,112.001c11.722,0 21.133,-3.513 28.231,-10.539c7.099,-7.026 10.648,-16.738 10.648,-29.137c0,-12.399 -3.549,-22.111 -10.648,-29.137c-7.099,-7.026 -16.509,-10.539 -28.231,-10.539l-24.422,0l0,79.351l24.422,0Z" style="fill:#f0528a;"/><path d="M1565.485,1421.526c-7.033,4.271 -15.565,7.646 -25.594,10.126c-10.029,2.48 -20.449,3.72 -31.26,3.72c-14.588,0 -26.994,-1.86 -37.219,-5.579c-10.225,-3.72 -17.909,-8.886 -23.054,-15.498c-5.145,-6.613 -7.717,-14.258 -7.717,-22.938c0,-7.577 1.954,-14.258 5.861,-20.044c3.907,-5.786 9.313,-10.263 16.216,-13.432c-5.34,-2.893 -9.41,-6.923 -12.211,-12.089c-2.8,-5.166 -4.201,-10.849 -4.201,-17.048c0,-7.99 2.377,-15.292 7.131,-21.904c4.754,-6.613 12.015,-11.916 21.784,-15.912c9.769,-3.995 21.817,-5.993 36.144,-5.993c8.987,0 17.844,0.895 26.571,2.686c8.727,1.791 16.411,4.202 23.054,7.233l-10.55,30.583c-12.113,-5.648 -24.617,-8.472 -37.512,-8.472c-9.248,0 -16.151,1.274 -20.71,3.823c-4.559,2.549 -6.838,6.096 -6.838,10.642c0,8.266 5.666,12.399 16.997,12.399l38.684,0l0,31.203l-41.224,0c-6.643,0 -11.657,1.137 -15.044,3.41c-3.386,2.273 -5.08,5.614 -5.08,10.022c0,4.684 2.475,8.335 7.424,10.952c4.949,2.617 12.634,3.926 23.054,3.926c7.424,0 15.076,-1.068 22.956,-3.203c7.88,-2.135 14.751,-5.063 20.612,-8.782l11.722,30.17Z" style="fill:#f0528a;"/><path d="M1662.585,1394.042l-21.1,0l0,38.436l-38.684,0l0,-144.651l62.519,0c12.374,0 23.119,2.17 32.237,6.509c9.117,4.34 16.151,10.539 21.1,18.598c4.949,8.059 7.424,17.53 7.424,28.414c0,10.47 -2.312,19.597 -6.936,27.38c-4.624,7.784 -11.234,13.88 -19.83,18.288l29.501,45.462l-41.419,0l-24.812,-38.436Zm24.422,-52.694c0,-6.75 -2.019,-11.985 -6.057,-15.705c-4.038,-3.72 -10.029,-5.579 -17.974,-5.579l-21.491,0l0,42.362l21.491,0c7.945,0 13.937,-1.825 17.974,-5.476c4.038,-3.651 6.057,-8.851 6.057,-15.602Z" style="fill:#f0528a;"/><path d="M1823.768,1319.444l0,81.418l22.077,0l0,31.617l-83.033,0l0,-31.617l22.272,0l0,-81.418l-22.272,0l0,-31.617l83.033,0l0,31.617l-22.077,0Z" style="fill:#f0528a;"/><path d="M1952.518,1284.934c12.895,0 24.259,2.721 34.093,8.162c9.834,5.442 17.453,13.363 22.859,23.764c5.405,10.401 8.108,22.903 8.108,37.506l0,78.112l-38.684,0l0,-32.03l-53.337,0l0,32.03l-38.098,0l0,-78.112c0,-14.603 2.703,-27.105 8.108,-37.506c5.405,-10.401 13.025,-18.322 22.859,-23.764c9.834,-5.442 21.198,-8.162 34.093,-8.162Zm26.375,83.898l0,-17.978c0,-10.608 -2.41,-18.598 -7.229,-23.971c-4.819,-5.373 -11.266,-8.059 -19.342,-8.059c-8.206,0 -14.718,2.686 -19.537,8.059c-4.819,5.373 -7.229,13.363 -7.229,23.971l0,17.978l53.337,0Z" style="fill:#f0528a;"/><path d="M2261.989,1421.526c-7.033,4.271 -15.565,7.646 -25.594,10.126c-10.029,2.48 -20.449,3.72 -31.26,3.72c-14.588,0 -26.994,-1.86 -37.219,-5.579c-10.225,-3.72 -17.909,-8.886 -23.054,-15.498c-5.145,-6.613 -7.717,-14.258 -7.717,-22.938c0,-7.577 1.954,-14.258 5.861,-20.044c3.907,-5.786 9.313,-10.263 16.216,-13.432c-5.34,-2.893 -9.41,-6.923 -12.211,-12.089c-2.8,-5.166 -4.201,-10.849 -4.201,-17.048c0,-7.99 2.377,-15.292 7.131,-21.904c4.754,-6.613 12.015,-11.916 21.784,-15.912c9.769,-3.995 21.817,-5.993 36.144,-5.993c8.987,0 17.844,0.895 26.571,2.686c8.727,1.791 16.411,4.202 23.054,7.233l-10.55,30.583c-12.113,-5.648 -24.617,-8.472 -37.512,-8.472c-9.248,0 -16.151,1.274 -20.71,3.823c-4.559,2.549 -6.838,6.096 -6.838,10.642c0,8.266 5.666,12.399 16.997,12.399l38.684,0l0,31.203l-41.224,0c-6.643,0 -11.657,1.137 -15.044,3.41c-3.386,2.273 -5.08,5.614 -5.08,10.022c0,4.684 2.475,8.335 7.424,10.952c4.949,2.617 12.634,3.926 23.054,3.926c7.424,0 15.076,-1.068 22.956,-3.203c7.88,-2.135 14.751,-5.063 20.612,-8.782l11.722,30.17Z" style="fill:#f0528a;"/><path d="M2385.284,1432.478l-28.329,-44.842l-27.938,44.842l-44.154,0l49.82,-73.152l-47.671,-71.499l43.568,0l27.352,41.742l26.961,-41.742l41.81,0l-47.671,69.846l50.797,74.805l-44.545,0Z" style="fill:#f0528a;"/><path d="M2523.375,1287.827c12.374,0 23.119,2.17 32.237,6.509c9.117,4.34 16.151,10.539 21.1,18.598c4.949,8.059 7.424,17.53 7.424,28.414c0,10.883 -2.475,20.32 -7.424,28.31c-4.949,7.99 -11.983,14.155 -21.1,18.495c-9.117,4.34 -19.863,6.509 -32.237,6.509l-23.835,0l0,37.816l-38.684,0l0,-144.651l62.519,0Zm-2.344,74.599c7.945,0 13.937,-1.825 17.974,-5.476c4.038,-3.651 6.057,-8.851 6.057,-15.602c0,-6.75 -2.019,-11.985 -6.057,-15.705c-4.038,-3.72 -10.029,-5.579 -17.974,-5.579l-21.491,0l0,42.362l21.491,0Z" style="fill:#f0528a;"/><path d="M2684.633,1394.042l-21.1,0l0,38.436l-38.684,0l0,-144.651l62.519,0c12.374,0 23.119,2.17 32.237,6.509c9.117,4.34 16.151,10.539 21.1,18.598c4.949,8.059 7.424,17.53 7.424,28.414c0,10.47 -2.312,19.597 -6.936,27.38c-4.624,7.784 -11.234,13.88 -19.83,18.288l29.501,45.462l-41.419,0l-24.812,-38.436Zm24.422,-52.694c0,-6.75 -2.019,-11.985 -6.057,-15.705c-4.038,-3.72 -10.029,-5.579 -17.974,-5.579l-21.491,0l0,42.362l21.491,0c7.945,0 13.937,-1.825 17.974,-5.476c4.038,-3.651 6.057,-8.851 6.057,-15.602Z" style="fill:#f0528a;"/><path d="M2908.921,1421.526c-7.033,4.271 -15.565,7.646 -25.594,10.126c-10.029,2.48 -20.449,3.72 -31.26,3.72c-14.588,0 -26.994,-1.86 -37.219,-5.579c-10.225,-3.72 -17.909,-8.886 -23.054,-15.498c-5.145,-6.613 -7.717,-14.258 -7.717,-22.938c0,-7.577 1.954,-14.258 5.861,-20.044c3.907,-5.786 9.313,-10.263 16.216,-13.432c-5.34,-2.893 -9.41,-6.923 -12.211,-12.089c-2.8,-5.166 -4.201,-10.849 -4.201,-17.048c0,-7.99 2.377,-15.292 7.131,-21.904c4.754,-6.613 12.015,-11.916 21.784,-15.912c9.769,-3.995 21.817,-5.993 36.144,-5.993c8.987,0 17.844,0.895 26.571,2.686c8.727,1.791 16.411,4.202 23.054,7.233l-10.55,30.583c-12.113,-5.648 -24.617,-8.472 -37.512,-8.472c-9.248,0 -16.151,1.274 -20.71,3.823c-4.559,2.549 -6.838,6.096 -6.838,10.642c0,8.266 5.666,12.399 16.997,12.399l38.684,0l0,31.203l-41.224,0c-6.643,0 -11.657,1.137 -15.044,3.41c-3.386,2.273 -5.08,5.614 -5.08,10.022c0,4.684 2.475,8.335 7.424,10.952c4.949,2.617 12.634,3.926 23.054,3.926c7.424,0 15.076,-1.068 22.956,-3.203c7.88,-2.135 14.751,-5.063 20.612,-8.782l11.722,30.17Z" style="fill:#f0528a;"/><path d="M2994.299,1435.371c-11.071,0 -21.817,-1.447 -32.237,-4.34c-10.42,-2.893 -18.886,-6.75 -25.398,-11.572l12.699,-30.17c6.122,4.271 13.22,7.715 21.296,10.332c8.075,2.617 16.021,3.926 23.835,3.926c14.848,0 22.272,-3.926 22.272,-11.779c0,-4.133 -2.117,-7.198 -6.35,-9.196c-4.233,-1.998 -11.039,-4.098 -20.416,-6.303c-10.29,-2.342 -18.886,-4.856 -25.789,-7.543c-6.903,-2.686 -12.829,-6.991 -17.779,-12.915c-4.949,-5.924 -7.424,-13.914 -7.424,-23.971c0,-8.817 2.279,-16.773 6.838,-23.867c4.559,-7.095 11.364,-12.709 20.416,-16.842c9.052,-4.133 20.156,-6.199 33.311,-6.199c8.987,0 17.844,1.068 26.571,3.203c8.727,2.135 16.411,5.269 23.054,9.402l-11.918,30.377c-13.025,-7.439 -25.659,-11.159 -37.902,-11.159c-7.685,0 -13.285,1.205 -16.802,3.616c-3.517,2.411 -5.275,5.545 -5.275,9.402c0,3.857 2.084,6.75 6.252,8.679c4.168,1.929 10.876,3.926 20.123,5.993c10.42,2.342 19.049,4.856 25.887,7.543c6.838,2.686 12.764,6.957 17.779,12.812c5.015,5.855 7.522,13.811 7.522,23.867c0,8.679 -2.279,16.532 -6.838,23.557c-4.559,7.026 -11.397,12.64 -20.514,16.842c-9.117,4.202 -20.189,6.303 -33.213,6.303Z" style="fill:#f0528a;"/><path d="M3142.587,1435.371c-11.071,0 -21.817,-1.447 -32.237,-4.34c-10.42,-2.893 -18.886,-6.75 -25.398,-11.572l12.699,-30.17c6.122,4.271 13.22,7.715 21.296,10.332c8.075,2.617 16.021,3.926 23.835,3.926c14.848,0 22.272,-3.926 22.272,-11.779c0,-4.133 -2.117,-7.198 -6.35,-9.196c-4.233,-1.998 -11.039,-4.098 -20.416,-6.303c-10.29,-2.342 -18.886,-4.856 -25.789,-7.543c-6.903,-2.686 -12.829,-6.991 -17.779,-12.915c-4.949,-5.924 -7.424,-13.914 -7.424,-23.971c0,-8.817 2.279,-16.773 6.838,-23.867c4.559,-7.095 11.364,-12.709 20.416,-16.842c9.052,-4.133 20.156,-6.199 33.311,-6.199c8.987,0 17.844,1.068 26.571,3.203c8.727,2.135 16.411,5.269 23.054,9.402l-11.918,30.377c-13.025,-7.439 -25.659,-11.159 -37.902,-11.159c-7.685,0 -13.285,1.205 -16.802,3.616c-3.517,2.411 -5.275,5.545 -5.275,9.402c0,3.857 2.084,6.75 6.252,8.679c4.168,1.929 10.876,3.926 20.123,5.993c10.42,2.342 19.049,4.856 25.887,7.543c6.838,2.686 12.764,6.957 17.779,12.812c5.015,5.855 7.522,13.811 7.522,23.867c0,8.679 -2.279,16.532 -6.838,23.557c-4.559,7.026 -11.397,12.64 -20.514,16.842c-9.117,4.202 -20.189,6.303 -33.213,6.303Z" style="fill:#f0528a;"/></g></g><g id="Simbolo"><path d="M174.686,391.627c6.174,-5.231 11.552,-11.354 17.725,-16.585c7.335,-6.215 135.581,-119.92 320.632,-93.311c27.598,3.968 196.469,28.251 298.99,179.091c232.421,341.964 -88.881,759.129 -457.711,659.816c-307.754,-82.868 -439.243,-467.296 -179.635,-729.01Z" style="fill:#0d60ba;"/><path d="M229.6,416.715c8.175,-6.007 8.129,-5.962 8.83,-6.488c223.582,-167.893 445.296,-25.874 509.706,54.004c201.723,250.168 19.181,606.567 -260.174,617.569c-362.457,14.275 -528.942,-421.609 -258.362,-665.085Z" style="fill:#53c4f6;"/><path d="M211.731,749.542c0.185,-3.19 2.311,-39.878 2.311,-39.878c39.66,-269.711 354.065,-309.272 474.68,-141.608c179.724,249.83 -126.154,555.793 -365.944,386.998c-116.571,-82.057 -110.371,-199.482 -111.048,-205.512Z" style="fill:#0c61bb;"/><path d="M264.403,709.834c1.861,-9.727 13.832,-72.284 51.663,-112.499c172.241,-183.097 443.261,11.078 353.542,215.918c-96.03,219.25 -426.571,159.854 -405.206,-103.418Z" style="fill:#0ca6e6;"/><path d="M646.755,174.598c-79.544,-111.831 61.052,-204.477 136.699,-136.551c102.915,92.411 -44.01,237.326 -136.699,136.551Z" style="fill:#f3558c;"/><path d="M849.674,407.259c-115.577,-23.032 -92.915,-164.698 -14.406,-186.115c133.403,-36.392 184.002,191.125 14.406,186.115Z" style="fill:#f4b73f;"/><path d="M336.207,749.597c16.479,-70.183 70.597,56.877 122.597,72.512c70.873,21.309 82.977,-2.082 98.767,-0.416c35.733,3.77 -27.715,78.557 -103.977,55.497c-101.683,-30.747 -115.167,-113.901 -117.387,-127.593Z" style="fill:#54c3f5;"/><path d="M601.755,190.712c83.999,26.829 -0.144,123.326 -43.712,67.749c-13.494,-17.213 -13.284,-69.738 43.712,-67.749Z" style="fill:#f4be4e;"/><path d="M537.515,590.528c69.415,12.178 3.938,97.372 -27.534,53.201c-3.026,-4.248 -23.564,-48.166 27.534,-53.201Z" style="fill:#f3f6f4;"/><path d="M602.373,720.673c1.816,-0.564 16.236,-5.04 23.774,0.037c13.592,9.154 11.136,21.891 10.739,23.953c-7.093,36.781 -74.923,16.856 -34.512,-23.99Z" style="fill:#f3f8f6;"/></g></g></svg>