<?xml version="1.0" encoding="UTF-8" standalone="no"?><!DOCTYPE svg PUBLIC "-//W3C//DTD SVG 1.1//EN" "http://www.w3.org/Graphics/SVG/1.1/DTD/svg11.dtd"><svg width="100%" height="100%" viewBox="0 0 3508 2481" version="1.1" xmlns="http://www.w3.org/2000/svg" xmlns:xlink="http://www.w3.org/1999/xlink" xml:space="preserve" xmlns:serif="http://www.serif.com/" style="fill-rule:evenodd;clip-rule:evenodd;stroke-linejoin:round;stroke-miterlimit:2;"><g><g id="Escrita-Tá-Limpo-" serif:id="Escrita Tá Limpo!"><path d="M450.527,1853.049l0,-388.78c0,-56.756 -34.406,-91.756 -90.439,-91.756c-56.033,0 -90.439,35 -90.439,91.756l0,454.995c0,57.702 36.372,92.702 96.337,92.702l229.136,0c54.067,0 87.49,-30.27 87.49,-79.459c0,-49.189 -33.423,-79.459 -87.49,-79.459l-144.595,0Z" style="fill:#0e5fb8;"/><g><path d="M811.439,1551.826c-51.118,0 -82.575,32.162 -82.575,84.188l0,298.916c0,52.026 31.457,84.188 82.575,84.188c51.118,0 82.575,-32.162 82.575,-84.188l0,-298.916c0,-52.026 -31.457,-84.188 -82.575,-84.188Z" style="fill:#0e5fb8;"/><path d="M1500.544,1546.151c-64.88,0 -114.032,19.865 -145.489,55.81l-1.966,0c-28.508,-35.946 -71.761,-55.81 -127.794,-55.81c-55.05,0 -92.405,18.919 -118.947,54.864l-1.966,0c-11.796,-30.27 -38.338,-49.189 -76.676,-49.189c-51.118,0 -82.575,32.162 -82.575,84.188l0,298.916c0,52.026 31.457,84.188 82.575,84.188c51.118,0 82.575,-32.162 82.575,-84.188l0,-159.863c0,-54.864 20.644,-83.242 61.931,-83.242c38.338,0 57.999,24.594 57.999,72.837l0,170.268c0,52.026 31.457,84.188 82.575,84.188c51.118,0 82.575,-32.162 82.575,-84.188l0,-159.863c0,-54.864 20.644,-83.242 61.931,-83.242c38.338,0 57.999,24.594 57.999,72.837l0,170.268c0,52.026 31.457,84.188 82.575,84.188c51.118,0 82.575,-32.162 82.575,-84.188l0,-189.187c0,-131.485 -61.931,-199.592 -179.895,-199.592Z" style="fill:#0e5fb8;"/><path d="M2016.635,1546.151c-56.033,0 -102.235,19.865 -132.709,52.972l-1.966,0c-11.796,-29.324 -37.355,-47.297 -75.693,-47.297c-51.118,0 -82.575,32.162 -82.575,84.188l0,439.35c0,52.026 31.457,84.188 82.575,84.188c51.118,0 82.575,-32.162 82.575,-84.188l0,-95.975l1.966,0c30.474,29.324 73.727,45.405 125.828,45.405c134.675,0 222.165,-93.648 222.165,-239.322c0,-145.674 -87.49,-239.322 -222.165,-239.322Zm-35.389,332.969c-53.084,0 -92.405,-39.729 -92.405,-93.648c0,-53.918 39.321,-93.648 92.405,-93.648c52.101,0 88.473,37.837 88.473,93.648c0,55.81 -36.372,93.648 -88.473,93.648Z" style="fill:#0e5fb8;"/><path d="M2258.46,1785.472c0,141.89 105.184,239.322 259.52,239.322c154.336,0 259.52,-97.431 259.52,-239.322c0,-141.89 -105.184,-239.322 -259.52,-239.322c-154.336,0 -259.52,97.431 -259.52,239.322Zm169.081,0c0,-55.81 36.372,-93.648 90.439,-93.648c54.067,0 90.439,37.837 90.439,93.648c0,55.81 -36.372,93.648 -90.439,93.648c-54.067,0 -90.439,-37.837 -90.439,-93.648Z" style="fill:#0e5fb8;"/></g><g><path d="M560.359,889.7c-48.699,0 -78.804,27.265 -78.804,71.57c0,44.305 30.105,71.57 78.804,71.57l131.93,0l0,349.33c0,51.974 30.99,83.498 81.46,83.498c50.47,0 81.46,-31.525 81.46,-83.498l0,-349.33l131.93,0c48.699,0 78.804,-27.265 78.804,-71.57c0,-44.305 -30.105,-71.57 -78.804,-71.57l-426.781,0Z" style="fill:#0e5fb8;"/><path d="M1345.659,1044.768c-34.532,0 -57.553,16.188 -68.179,42.601l-1.771,0c-27.449,-29.821 -69.064,-47.713 -119.534,-47.713c-121.305,0 -200.109,84.35 -200.109,215.562c0,131.212 78.804,215.562 200.109,215.562c50.47,0 92.086,-17.893 119.534,-47.713l1.771,0c10.625,26.413 33.647,42.601 68.179,42.601c46.043,0 74.377,-28.969 74.377,-75.83l0,-269.24c0,-46.861 -28.334,-75.83 -74.377,-75.83Zm-157.608,294.801c-46.928,0 -79.689,-34.081 -79.689,-84.35c0,-50.269 32.761,-84.35 79.689,-84.35c47.814,0 83.231,35.785 83.231,84.35c0,48.565 -35.418,84.35 -83.231,84.35Zm133.701,-460.946c0,-32.377 -23.907,-57.086 -58.439,-57.086c-15.938,0 -30.105,5.964 -42.501,16.188l-84.117,73.274c-13.282,11.076 -19.48,24.709 -19.48,41.749c0,28.969 20.365,51.974 52.241,51.974c13.282,0 25.678,-3.408 38.074,-12.78l90.315,-66.458c13.282,-9.372 23.907,-24.709 23.907,-46.861Z" style="fill:#0e5fb8;"/></g><path d="M2905.165,1469.846l-36.062,251.166c-7.301,49.639 14.97,85.571 63.281,94.624c48.311,9.052 82.08,-16.379 93.246,-65.294l57.319,-247.182l2.091,-11.157c10.627,-56.715 -16.744,-97.453 -71.818,-107.772c-55.074,-10.32 -95.338,17.744 -105.965,74.459l-2.091,11.157Zm21.992,373.682c-55.074,-10.32 -97.27,17.382 -107.201,70.378c-9.93,52.996 19.373,94.096 74.448,104.416c55.074,10.32 97.27,-17.382 107.201,-70.378c9.93,-52.996 -19.373,-94.096 -74.448,-104.416Z" style="fill:#0e5fb8;"/></g><g id="Escrita-Lavanderia" serif:id="Escrita Lavanderia"><path d="M3147.263,2224.081l0,218.58c0,17.658 -14.336,31.994 -31.994,31.994l-2815.276,0c-17.658,0 -31.994,-14.336 -31.994,-31.994l0,-218.58c0,-17.658 14.336,-31.994 31.994,-31.994l2815.276,0c17.658,0 31.994,14.336 31.994,31.994Z" style="fill:#f4b73f;"/><g><path d="M339.689,2260.236l38.224,0l0,110.873l64.478,0l0,32.057l-102.702,0l0,-142.93Z" style="fill:#fff;"/><path d="M542.197,2257.377c12.741,0 23.97,2.688 33.687,8.065c9.717,5.377 17.246,13.204 22.587,23.481c5.341,10.277 8.012,22.631 8.012,37.06l0,77.182l-38.224,0l0,-31.649l-52.702,0l0,31.649l-37.644,0l0,-77.182c0,-14.429 2.671,-26.782 8.012,-37.06c5.341,-10.277 12.87,-18.104 22.587,-23.481c9.717,-5.377 20.946,-8.065 33.687,-8.065Zm26.062,82.899l0,-17.764c0,-10.482 -2.381,-18.377 -7.143,-23.686c-4.762,-5.309 -11.132,-7.963 -19.112,-7.963c-8.108,0 -14.543,2.654 -19.305,7.963c-4.762,5.309 -7.143,13.204 -7.143,23.686l0,17.764l52.702,0Z" style="fill:#fff;"/><path d="M787.324,2260.236l-57.914,142.93l-37.644,0l-57.721,-142.93l41.312,0l36.679,93.109l37.451,-93.109l37.837,0Z" style="fill:#fff;"/><path d="M879.17,2257.377c12.741,0 23.97,2.688 33.687,8.065c9.717,5.377 17.246,13.204 22.587,23.481c5.341,10.277 8.012,22.631 8.012,37.06l0,77.182l-38.224,0l0,-31.649l-52.702,0l0,31.649l-37.644,0l0,-77.182c0,-14.429 2.671,-26.782 8.012,-37.06c5.341,-10.277 12.87,-18.104 22.587,-23.481c9.717,-5.377 20.946,-8.065 33.687,-8.065Zm26.062,82.899l0,-17.764c0,-10.482 -2.381,-18.377 -7.143,-23.686c-4.762,-5.309 -11.132,-7.963 -19.112,-7.963c-8.108,0 -14.543,2.654 -19.305,7.963c-4.762,5.309 -7.143,13.204 -7.143,23.686l0,17.764l52.702,0Z" style="fill:#fff;"/><path d="M1067.778,2257.377c16.087,0 28.571,5.411 37.451,16.233c8.88,10.822 13.32,26.238 13.32,46.248l0,83.308l-38.224,0l0,-82.083c0,-10.073 -2.156,-17.628 -6.467,-22.665c-4.311,-5.037 -10.328,-7.555 -18.05,-7.555c-7.979,0 -14.414,2.688 -19.305,8.065c-4.891,5.377 -7.336,13.442 -7.336,24.196l0,80.041l-38.224,0l0,-142.93l37.065,0l0,16.335c9.138,-12.796 22.394,-19.193 39.768,-19.193Z" style="fill:#fff;"/><path d="M1166.04,2260.236l63.899,0c14.8,0 27.928,2.927 39.382,8.78c11.454,5.853 20.334,14.157 26.641,24.911c6.306,10.754 9.459,23.345 9.459,37.774c0,14.429 -3.153,27.021 -9.459,37.774c-6.306,10.754 -15.186,19.057 -26.641,24.911c-11.454,5.853 -24.581,8.78 -39.382,8.78l-63.899,0l0,-142.93Zm62.355,110.669c11.583,0 20.881,-3.471 27.895,-10.413c7.014,-6.942 10.521,-16.539 10.521,-28.79c0,-12.251 -3.507,-21.848 -10.521,-28.79c-7.014,-6.942 -16.313,-10.413 -27.895,-10.413l-24.131,0l0,78.407l24.131,0Z" style="fill:#fff;"/><path d="M1463.334,2392.344c-6.95,4.22 -15.38,7.555 -25.289,10.005c-9.91,2.45 -20.206,3.675 -30.888,3.675c-14.414,0 -26.673,-1.838 -36.776,-5.513c-10.103,-3.675 -17.696,-8.78 -22.78,-15.314c-5.084,-6.534 -7.625,-14.089 -7.625,-22.665c0,-7.487 1.93,-14.089 5.791,-19.806c3.861,-5.717 9.202,-10.141 16.023,-13.272c-5.277,-2.859 -9.298,-6.84 -12.066,-11.945c-2.767,-5.105 -4.151,-10.72 -4.151,-16.845c0,-7.895 2.349,-15.11 7.046,-21.644c4.698,-6.534 11.872,-11.775 21.525,-15.722c9.652,-3.948 21.557,-5.921 35.714,-5.921c8.88,0 17.632,0.885 26.255,2.654c8.623,1.77 16.216,4.152 22.78,7.146l-10.425,30.219c-11.969,-5.581 -24.324,-8.372 -37.065,-8.372c-9.138,0 -15.959,1.259 -20.463,3.777c-4.504,2.518 -6.757,6.023 -6.757,10.516c0,8.167 5.598,12.251 16.795,12.251l38.224,0l0,30.832l-40.733,0c-6.564,0 -11.519,1.123 -14.865,3.369c-3.346,2.246 -5.019,5.547 -5.019,9.903c0,4.628 2.445,8.235 7.336,10.822c4.891,2.586 12.484,3.88 22.78,3.88c7.336,0 14.897,-1.055 22.683,-3.165c7.786,-2.11 14.575,-5.003 20.367,-8.678l11.583,29.811Z" style="fill:#fff;"/><path d="M1559.279,2365.187l-20.849,0l0,37.979l-38.224,0l0,-142.93l61.775,0c12.226,0 22.844,2.144 31.853,6.432c9.009,4.288 15.959,10.413 20.849,18.377c4.891,7.963 7.336,17.322 7.336,28.076c0,10.345 -2.284,19.364 -6.853,27.055c-4.569,7.691 -11.1,13.714 -19.594,18.07l29.15,44.921l-40.926,0l-24.517,-37.979Zm24.131,-52.067c0,-6.67 -1.995,-11.843 -5.984,-15.518c-3.99,-3.675 -9.91,-5.513 -17.76,-5.513l-21.235,0l0,41.858l21.235,0c7.851,0 13.771,-1.804 17.76,-5.411c3.99,-3.607 5.984,-8.746 5.984,-15.416Z" style="fill:#fff;"/><path d="M1718.544,2291.476l0,80.449l21.814,0l0,31.24l-82.046,0l0,-31.24l22.007,0l0,-80.449l-22.007,0l0,-31.24l82.046,0l0,31.24l-21.814,0Z" style="fill:#fff;"/><path d="M1845.763,2257.377c12.741,0 23.97,2.688 33.687,8.065c9.717,5.377 17.246,13.204 22.587,23.481c5.341,10.277 8.012,22.631 8.012,37.06l0,77.182l-38.224,0l0,-31.649l-52.702,0l0,31.649l-37.644,0l0,-77.182c0,-14.429 2.671,-26.782 8.012,-37.06c5.341,-10.277 12.87,-18.104 22.587,-23.481c9.717,-5.377 20.946,-8.065 33.687,-8.065Zm26.062,82.899l0,-17.764c0,-10.482 -2.381,-18.377 -7.143,-23.686c-4.762,-5.309 -11.132,-7.963 -19.112,-7.963c-8.108,0 -14.543,2.654 -19.305,7.963c-4.762,5.309 -7.143,13.204 -7.143,23.686l0,17.764l52.702,0Z" style="fill:#fff;"/><path d="M2151.551,2392.344c-6.95,4.22 -15.38,7.555 -25.289,10.005c-9.91,2.45 -20.206,3.675 -30.888,3.675c-14.414,0 -26.673,-1.838 -36.776,-5.513c-10.103,-3.675 -17.696,-8.78 -22.78,-15.314c-5.084,-6.534 -7.625,-14.089 -7.625,-22.665c0,-7.487 1.93,-14.089 5.791,-19.806c3.861,-5.717 9.202,-10.141 16.023,-13.272c-5.277,-2.859 -9.298,-6.84 -12.066,-11.945c-2.767,-5.105 -4.151,-10.72 -4.151,-16.845c0,-7.895 2.349,-15.11 7.046,-21.644c4.698,-6.534 11.872,-11.775 21.525,-15.722c9.652,-3.948 21.557,-5.921 35.714,-5.921c8.88,0 17.632,0.885 26.255,2.654c8.623,1.77 16.216,4.152 22.78,7.146l-10.425,30.219c-11.969,-5.581 -24.324,-8.372 -37.065,-8.372c-9.138,0 -15.959,1.259 -20.463,3.777c-4.504,2.518 -6.757,6.023 -6.757,10.516c0,8.167 5.598,12.251 16.795,12.251l38.224,0l0,30.832l-40.733,0c-6.564,0 -11.519,1.123 -14.865,3.369c-3.346,2.246 -5.019,5.547 -5.019,9.903c0,4.628 2.445,8.235 7.336,10.822c4.891,2.586 12.484,3.88 22.78,3.88c7.336,0 14.897,-1.055 22.683,-3.165c7.786,-2.11 14.575,-5.003 20.367,-8.678l11.583,29.811Z" style="fill:#fff;"/><path d="M2273.379,2403.166l-27.992,-44.308l-27.606,44.308l-43.629,0l49.227,-72.282l-47.104,-70.648l43.05,0l27.027,41.245l26.641,-41.245l41.312,0l-47.104,69.015l50.193,73.915l-44.015,0Z" style="fill:#fff;"/><path d="M2409.827,2260.236c12.226,0 22.844,2.144 31.853,6.432c9.009,4.288 15.959,10.413 20.849,18.377c4.891,7.963 7.336,17.322 7.336,28.076c0,10.754 -2.445,20.078 -7.336,27.973c-4.891,7.895 -11.84,13.987 -20.849,18.275c-9.009,4.288 -19.627,6.432 -31.853,6.432l-23.552,0l0,37.366l-38.224,0l0,-142.93l61.775,0Zm-2.317,73.711c7.851,0 13.771,-1.804 17.76,-5.411c3.99,-3.607 5.984,-8.746 5.984,-15.416c0,-6.67 -1.995,-11.843 -5.984,-15.518c-3.99,-3.675 -9.91,-5.513 -17.76,-5.513l-21.235,0l0,41.858l21.235,0Z" style="fill:#fff;"/><path d="M2569.166,2365.187l-20.849,0l0,37.979l-38.224,0l0,-142.93l61.775,0c12.226,0 22.844,2.144 31.853,6.432c9.009,4.288 15.959,10.413 20.849,18.377c4.891,7.963 7.336,17.322 7.336,28.076c0,10.345 -2.284,19.364 -6.853,27.055c-4.569,7.691 -11.1,13.714 -19.594,18.07l29.15,44.921l-40.926,0l-24.517,-37.979Zm24.131,-52.067c0,-6.67 -1.995,-11.843 -5.984,-15.518c-3.99,-3.675 -9.91,-5.513 -17.76,-5.513l-21.235,0l0,41.858l21.235,0c7.851,0 13.771,-1.804 17.76,-5.411c3.99,-3.607 5.984,-8.746 5.984,-15.416Z" style="fill:#fff;"/><path d="M2790.786,2392.344c-6.95,4.22 -15.38,7.555 -25.289,10.005c-9.91,2.45 -20.206,3.675 -30.888,3.675c-14.414,0 -26.673,-1.838 -36.776,-5.513c-10.103,-3.675 -17.696,-8.78 -22.78,-15.314c-5.084,-6.534 -7.625,-14.089 -7.625,-22.665c0,-7.487 1.93,-14.089 5.791,-19.806c3.861,-5.717 9.202,-10.141 16.023,-13.272c-5.277,-2.859 -9.298,-6.84 -12.066,-11.945c-2.767,-5.105 -4.151,-10.72 -4.151,-16.845c0,-7.895 2.349,-15.11 7.046,-21.644c4.698,-6.534 11.872,-11.775 21.525,-15.722c9.652,-3.948 21.557,-5.921 35.714,-5.921c8.88,0 17.632,0.885 26.255,2.654c8.623,1.77 16.216,4.152 22.78,7.146l-10.425,30.219c-11.969,-5.581 -24.324,-8.372 -37.065,-8.372c-9.138,0 -15.959,1.259 -20.463,3.777c-4.504,2.518 -6.757,6.023 -6.757,10.516c0,8.167 5.598,12.251 16.795,12.251l38.224,0l0,30.832l-40.733,0c-6.564,0 -11.519,1.123 -14.865,3.369c-3.346,2.246 -5.019,5.547 -5.019,9.903c0,4.628 2.445,8.235 7.336,10.822c4.891,2.586 12.484,3.88 22.78,3.88c7.336,0 14.897,-1.055 22.683,-3.165c7.786,-2.11 14.575,-5.003 20.367,-8.678l11.583,29.811Z" style="fill:#fff;"/><path d="M2875.148,2406.024c-10.939,0 -21.557,-1.429 -31.853,-4.288c-10.296,-2.859 -18.661,-6.67 -25.096,-11.434l12.548,-29.811c6.049,4.22 13.063,7.623 21.042,10.209c7.979,2.586 15.83,3.88 23.552,3.88c14.672,0 22.007,-3.88 22.007,-11.639c0,-4.084 -2.091,-7.112 -6.274,-9.086c-4.183,-1.974 -10.907,-4.05 -20.174,-6.228c-10.167,-2.314 -18.661,-4.798 -25.482,-7.453c-6.821,-2.654 -12.677,-6.908 -17.567,-12.762c-4.891,-5.853 -7.336,-13.748 -7.336,-23.686c0,-8.712 2.252,-16.573 6.757,-23.583c4.504,-7.01 11.229,-12.557 20.174,-16.641c8.945,-4.084 19.916,-6.126 32.915,-6.126c8.88,0 17.632,1.055 26.255,3.165c8.623,2.11 16.216,5.207 22.78,9.29l-11.776,30.015c-12.87,-7.351 -25.354,-11.026 -37.451,-11.026c-7.593,0 -13.127,1.191 -16.602,3.573c-3.475,2.382 -5.212,5.479 -5.212,9.29c0,3.811 2.059,6.67 6.178,8.576c4.118,1.906 10.746,3.88 19.884,5.921c10.296,2.314 18.822,4.798 25.579,7.453c6.757,2.654 12.612,6.874 17.567,12.66c4.955,5.785 7.432,13.646 7.432,23.583c0,8.576 -2.252,16.335 -6.757,23.277c-4.504,6.942 -11.261,12.489 -20.27,16.641c-9.009,4.152 -19.948,6.228 -32.818,6.228Z" style="fill:#fff;"/><path d="M3021.672,2406.024c-10.939,0 -21.557,-1.429 -31.853,-4.288c-10.296,-2.859 -18.661,-6.67 -25.096,-11.434l12.548,-29.811c6.049,4.22 13.063,7.623 21.042,10.209c7.979,2.586 15.83,3.88 23.552,3.88c14.672,0 22.007,-3.88 22.007,-11.639c0,-4.084 -2.091,-7.112 -6.274,-9.086c-4.183,-1.974 -10.907,-4.05 -20.174,-6.228c-10.167,-2.314 -18.661,-4.798 -25.482,-7.453c-6.821,-2.654 -12.677,-6.908 -17.567,-12.762c-4.891,-5.853 -7.336,-13.748 -7.336,-23.686c0,-8.712 2.252,-16.573 6.757,-23.583c4.504,-7.01 11.229,-12.557 20.174,-16.641c8.945,-4.084 19.916,-6.126 32.915,-6.126c8.88,0 17.632,1.055 26.255,3.165c8.623,2.11 16.216,5.207 22.78,9.29l-11.776,30.015c-12.87,-7.351 -25.354,-11.026 -37.451,-11.026c-7.593,0 -13.127,1.191 -16.602,3.573c-3.475,2.382 -5.212,5.479 -5.212,9.29c0,3.811 2.059,6.67 6.178,8.576c4.118,1.906 10.746,3.88 19.884,5.921c10.296,2.314 18.822,4.798 25.579,7.453c6.757,2.654 12.612,6.874 17.567,12.66c4.955,5.785 7.432,13.646 7.432,23.583c0,8.576 -2.252,16.335 -6.757,23.277c-4.504,6.942 -11.261,12.489 -20.27,16.641c-9.009,4.152 -19.948,6.228 -32.818,6.228Z" style="fill:#fff;"/></g></g><g id="Simbolo"><path d="M1701.944,525.204c7.851,-6.651 14.69,-14.439 22.54,-21.09c9.327,-7.903 172.41,-152.495 407.727,-118.657c35.095,5.046 249.837,35.925 380.206,227.738c295.555,434.854 -113.025,965.336 -582.042,839.045c-391.351,-105.378 -558.557,-594.231 -228.431,-927.036Z" style="fill:#0d60ba;"/><path d="M1771.775,557.107c10.396,-7.639 10.337,-7.581 11.228,-8.25c284.315,-213.498 566.255,-32.903 648.161,68.673c256.518,318.122 24.391,771.332 -330.847,785.323c-460.913,18.153 -672.621,-536.133 -328.542,-845.745Z" style="fill:#53c4f6;"/><path d="M1749.052,980.343c0.235,-4.057 2.939,-50.71 2.939,-50.71c50.433,-342.974 450.242,-393.282 603.62,-180.074c228.543,317.692 -160.422,706.766 -465.347,492.121c-148.236,-104.347 -140.352,-253.669 -141.212,-261.337Z" style="fill:#0c61bb;"/><path d="M1816.032,929.848c2.367,-12.369 17.59,-91.919 65.697,-143.058c219.027,-232.833 563.667,14.087 449.577,274.569c-122.116,278.806 -542.443,203.276 -515.274,-131.51Z" style="fill:#0ca6e6;"/><path d="M2302.244,249.223c-101.152,-142.209 77.636,-260.02 173.832,-173.643c130.871,117.513 -55.965,301.793 -173.832,173.643Z" style="fill:#f3558c;"/><path d="M2560.283,545.083c-146.972,-29.288 -118.154,-209.436 -18.319,-236.67c169.641,-46.277 233.983,243.041 18.319,236.67Z" style="fill:#f4b73f;"/><path d="M1907.339,980.413c20.956,-89.248 89.774,72.327 155.899,92.208c90.124,27.097 105.516,-2.647 125.596,-0.529c45.44,4.794 -35.243,99.896 -132.221,70.572c-129.304,-39.099 -146.45,-144.841 -149.273,-162.251Z" style="fill:#54c3f5;"/><path d="M2245.02,269.714c106.816,34.116 -0.182,156.825 -55.586,86.152c-17.159,-21.888 -16.892,-88.681 55.586,-86.152Z" style="fill:#f4be4e;"/><path d="M2163.33,778.134c88.27,15.486 5.008,123.822 -35.014,67.652c-3.849,-5.401 -29.965,-61.249 35.014,-67.652Z" style="fill:#f3f6f4;"/><path d="M2245.806,943.631c2.31,-0.717 20.646,-6.408 30.231,0.047c17.285,11.64 14.161,27.837 13.656,30.459c-9.019,46.773 -95.275,21.434 -43.887,-30.506Z" style="fill:#f3f8f6;"/></g></g></svg>