<?xml version="1.0" encoding="UTF-8" standalone="no"?><!DOCTYPE svg PUBLIC "-//W3C//DTD SVG 1.1//EN" "http://www.w3.org/Graphics/SVG/1.1/DTD/svg11.dtd"><svg width="100%" height="100%" viewBox="0 0 2425 2435" version="1.1" xmlns="http://www.w3.org/2000/svg" xmlns:xlink="http://www.w3.org/1999/xlink" xml:space="preserve" xmlns:serif="http://www.serif.com/" style="fill-rule:evenodd;clip-rule:evenodd;stroke-linejoin:round;stroke-miterlimit:2;"><g><g id="Simbolo"><path d="M392.779,323.261c17.518,-14.842 32.778,-32.218 50.296,-47.06c20.813,-17.634 384.714,-340.276 909.798,-264.771c78.31,11.261 557.485,80.164 848.388,508.173c659.5,970.33 -252.203,2154.043 -1298.764,1872.239c-873.257,-235.139 -1246.36,-1325.962 -509.719,-2068.581Z" style="fill:#0d60ba;"/><path d="M548.598,394.449c23.198,-17.046 23.065,-16.917 25.054,-18.41c634.417,-476.399 1263.537,-73.419 1446.3,153.236c572.393,709.855 54.425,1721.145 -738.249,1752.363c-1028.478,40.506 -1500.882,-1196.323 -733.106,-1887.19Z" style="fill:#53c4f6;"/><path d="M497.894,1338.853c0.525,-9.052 6.558,-113.154 6.558,-113.154c112.537,-765.31 1004.667,-877.565 1346.914,-401.816c509.969,708.896 -357.964,1577.072 -1038.372,1098.115c-330.772,-232.839 -313.18,-566.035 -315.099,-583.145Z" style="fill:#0c61bb;"/><path d="M647.353,1226.18c5.282,-27.601 39.249,-205.106 146.596,-319.219c488.736,-519.541 1257.762,31.434 1003.183,612.67c-272.488,622.125 -1210.403,453.588 -1149.779,-293.451Z" style="fill:#0ca6e6;"/><path d="M851.097,1339.009c46.76,-199.146 200.321,161.39 347.872,205.753c201.103,60.464 235.448,-5.907 280.253,-1.179c101.393,10.698 -78.641,222.906 -295.038,157.473c-288.528,-87.245 -326.788,-323.197 -333.087,-362.046Z" style="fill:#54c3f5;"/><path d="M1422.313,887.647c196.966,34.555 11.175,276.295 -78.129,150.959c-8.588,-12.053 -66.863,-136.671 78.129,-150.959Z" style="fill:#f3f6f4;"/><path d="M1606.349,1256.935c5.154,-1.6 46.07,-14.3 67.458,0.105c38.569,25.974 31.6,62.116 30.471,67.967c-20.125,104.368 -212.596,47.829 -97.93,-68.071Z" style="fill:#f3f8f6;"/></g></g></svg>