<?xml version="1.0" encoding="UTF-8" standalone="no"?><!DOCTYPE svg PUBLIC "-//W3C//DTD SVG 1.1//EN" "http://www.w3.org/Graphics/SVG/1.1/DTD/svg11.dtd"><svg width="100%" height="100%" viewBox="0 0 1155 1154" version="1.1" xmlns="http://www.w3.org/2000/svg" xmlns:xlink="http://www.w3.org/1999/xlink" xml:space="preserve" xmlns:serif="http://www.serif.com/" style="fill-rule:evenodd;clip-rule:evenodd;stroke-linejoin:round;stroke-miterlimit:2;"><g id="Tiktok.png"><path d="M592.477,1153.951c-24.36,-0.56 -51.134,0.308 -69.437,-1.686c-435.095,-47.419 -647.272,-508.77 -447.336,-861.528c186.438,-328.942 629.291,-382.323 889.574,-141.936c382.605,353.358 147.963,989.041 -372.802,1005.15Z"/><path d="M709.405,216.801l0.983,1.669c5.052,26.571 8.128,45.543 45.499,90.637c10.219,12.331 19.246,15.472 21.265,16.174c1.77,1.703 14.916,14.353 24.202,18.893c1.867,5.356 -0.417,7.73 21.783,22.391c4.541,2.999 41.203,27.21 63.176,25.21l0.568,2.945c-3.136,26.331 3.848,98.235 -4.767,99.052c-44.036,4.176 -104.866,-19.983 -113.481,-23.404c-47.162,-18.731 -61.406,-38.078 -62.324,-29.553c-3.284,30.505 8.232,258.976 -7.79,317.782c-37.547,137.811 -190.123,227.672 -348.702,147.245c-0.288,-0.146 0,-0 -3.415,-2.152c-17.073,-11.941 -15.67,-13.295 -32.546,-25.255c-0.078,-1.285 2.595,-1.643 2.517,-2.928c-0.08,-1.317 -0.39,-1.215 -6.422,-10.327c-62.017,-93.698 -41.442,-187.594 -22.457,-228.374c58.093,-124.783 162.89,-139.083 213.451,-144.523l0.601,1.292c-1.978,11.402 -0.371,76.692 -0.835,94.643c-0.152,5.9 -5.815,4.8 -6.44,4.679c-7.677,-1.491 -56.336,-10.942 -95.312,21.716c-75.105,62.93 -23.763,168.747 13.339,173.82c0.859,0.988 7.623,8.763 12.724,10.29c0.948,4.525 0.421,4.744 3.617,8.202c51.893,56.149 162.801,38.865 183.22,-51.187c6.555,-28.909 0.45,-527.508 3.575,-535.225c2.531,-6.249 69.252,0.015 93.969,-3.711Z" style="fill:#fefefe;"/><path d="M886.881,394.72c6.438,0.51 6.244,0.059 12.525,0.992c18.123,2.692 24.911,-2.697 24.508,10.105c-1.798,57.239 3.868,119.813 -4.558,120.487c-47.443,3.793 -111.656,-22.672 -120.802,-26.442c-35.499,-14.631 -54.602,-35.93 -54.635,-24.501c-0.712,241.042 7.653,288.557 -19.258,349.634c-6.043,13.715 -42.709,96.932 -135.555,129.309c-22.554,7.865 -96.071,31.338 -178.686,-5.014c-50.981,-22.432 -60.935,-40.122 -64.018,-45.602c3.415,2.152 3.127,2.006 3.415,2.152c158.579,80.427 311.155,-9.434 348.702,-147.245c16.022,-58.806 4.506,-287.277 7.79,-317.782c0.918,-8.525 15.162,10.823 62.324,29.553c8.615,3.421 69.445,27.58 113.481,23.404c8.615,-0.817 1.632,-72.721 4.767,-99.052Z" style="fill:#fd2c55;"/><path d="M709.405,216.801c-24.717,3.727 -91.438,-2.537 -93.969,3.711c-3.125,7.717 2.98,506.316 -3.575,535.225c-20.419,90.052 -131.327,107.336 -183.22,51.187c-3.196,-3.459 -2.67,-3.677 -3.617,-8.202c11.397,3.684 99.019,32.005 140.418,-51.933c13.416,-27.201 11.455,-28.392 11.572,-257.059c0.153,-300.796 -0.651,-303.068 3.71,-304.38c2.083,-0.626 120.032,-0.411 121.88,-0.104c2.548,0.423 3.683,1.061 6.803,31.555Z" style="fill:#25f3ed;"/><path d="M500.945,492.281c-50.561,5.44 -155.358,19.739 -213.451,144.523c-18.985,40.779 -39.56,134.676 22.457,228.374c6.031,9.113 6.342,9.01 6.422,10.327c0.078,1.285 -2.595,1.643 -2.517,2.928c-2.71,-1.951 -2.676,-1.517 -5.106,-3.676c-158.475,-140.831 -61.482,-428.239 179.451,-412.869c20.088,1.281 12.619,10.331 12.744,30.393Z" style="fill:#25f3ed;"/><path d="M501.546,493.574c11.128,0.242 35.459,-1.6 36.833,7.605c0.174,1.168 0.061,121.41 0.033,121.899c-0.253,4.471 -6.201,3.221 -6.784,3.098c-8.941,-1.879 -69.251,-14.556 -108.582,35.399c-46.774,59.408 -16.16,110.452 -10.747,126.858c-37.102,-5.073 -88.444,-110.89 -13.339,-173.82c38.977,-32.658 87.635,-23.207 95.312,-21.716c0.625,0.121 6.287,1.221 6.44,-4.679c0.464,-17.951 -1.143,-83.241 0.835,-94.643Z" style="fill:#fd2c55;"/><path d="M710.388,218.469c6.819,-0.549 6.73,-0.954 26.778,-0.744c15.98,0.167 -2.885,33.933 33.325,93.467c5.06,8.32 3.091,8.913 4.11,10.855c0.358,0.683 1.792,-0.158 2.27,0.447c0.578,0.733 -0.298,2.053 0.28,2.786c-2.019,-0.702 -11.045,-3.843 -21.265,-16.174c-37.371,-45.094 -40.447,-64.066 -45.499,-90.637Z" style="fill:#fd2b54;"/><path d="M801.354,344.174c0.393,0.125 4.913,1.566 4.913,1.566c41.961,21.56 75.204,17.364 78.173,19.916c1.845,1.585 1.871,24.024 1.873,26.119c-21.973,2 -58.635,-22.212 -63.176,-25.21c-22.2,-14.661 -19.916,-17.036 -21.783,-22.391Z" style="fill:#25f4ee;"/></g></svg>