<?xml version="1.0" encoding="UTF-8" standalone="no"?><!DOCTYPE svg PUBLIC "-//W3C//DTD SVG 1.1//EN" "http://www.w3.org/Graphics/SVG/1.1/DTD/svg11.dtd"><svg width="100%" height="100%" viewBox="0 0 1164 1168" version="1.1" xmlns="http://www.w3.org/2000/svg" xmlns:xlink="http://www.w3.org/1999/xlink" xml:space="preserve" xmlns:serif="http://www.serif.com/" style="fill-rule:evenodd;clip-rule:evenodd;stroke-linejoin:round;stroke-miterlimit:2;"><g id="REDES-SOCIAIS.png" serif:id="REDES SOCIAIS.png"><path d="M40.08,1086.061c-1.356,-1.626 -1.234,-1.531 -2.564,-3.074c-30.425,-35.284 -23.654,-41.325 0.774,-132.576c32.411,-121.069 30.83,-121.437 30.188,-122.7c-113.966,-224.291 -86.265,-471.952 87.493,-650.649c145.559,-149.696 353.571,-204.633 529.236,-164.198c175.491,40.395 271.528,147.882 313.79,194.548c30.79,33.999 203.047,212.723 157.238,476.447c-43.189,248.635 -223.519,377.546 -301.782,419.008c-288.665,152.926 -531.685,-14.242 -542.575,-18.2c-5.316,-1.932 -118.595,31.883 -177.66,46.461c-52.351,12.921 -51.383,-3.144 -94.137,-45.066Z" style="fill:#0a6936;fill-opacity:1;"/><path d="M584.282,20.223c351.05,25.272 531.431,324.264 505.38,586.923c-38.563,388.824 -468.15,614.262 -815.105,404.816c-10.671,-6.441 -11.742,-1.177 -196.303,48.351c-36.094,9.686 -46.084,-18.038 -41.224,-36.938c4.077,-15.857 5.016,-15.392 52.601,-197.78c3.727,-14.284 -70.861,-95.52 -69.786,-280.02c1.546,-265.321 226.023,-535.026 555.041,-525.744c3.134,0.088 6.263,0.303 9.396,0.392Z" style="fill:#fefefe;"/><path d="M746.466,101.736c8.454,3.784 8.467,3.683 9.196,4.019c30.546,14.071 217.707,100.29 274.213,318.641c98.219,379.534 -238.16,687.689 -580.157,610.792c-134.081,-30.148 -152.912,-80.456 -190.439,-70.216c-10.861,2.964 -97.417,26.583 -135.884,36.597c0.494,-0.804 1.314,-0.571 28.556,-104.841c18.288,-69.995 22.725,-71.944 9.335,-95.848c-83.341,-148.785 -84.737,-336.681 7.342,-488.22c138.889,-228.577 402.784,-269.378 561.244,-213.321c10.225,3.617 10.307,2.839 11.167,3.191c2.857,1.168 2.982,1.064 5.425,-0.794Z" style="fill:#7fc242;"/><path d="M703.718,589.623c52.534,5.928 47.523,20.293 96.743,38.924c116.048,43.929 82.591,120.707 80.165,127.826c-22.487,65.975 -69.085,81.736 -77.799,84.684c-254.475,86.073 -534.703,-276.469 -553.296,-383.093c-17.103,-98.083 44.964,-225.8 144.043,-197.088c5.469,1.585 23.805,6.898 55.485,44.579c4.455,5.299 10.24,12.179 37.586,77.952c49.108,118.114 -32.501,115.549 -23.179,145.204c3.026,9.628 28.178,50.319 69.201,81.406c18.96,14.367 71.681,48.01 85.165,47.138c34.401,-2.224 29.25,-64.825 85.887,-67.533Z" style="fill:#0d7b3e;"/><path d="M459.886,429.95c-9.961,48.051 -59.32,49.113 -33.641,92.861c59.589,101.517 172.498,159.941 198.913,156.282c37.519,-5.197 44.18,-76.407 87.722,-67.28c28.021,5.874 24.48,14.135 78.6,36.345c27.4,11.245 71.08,18.962 44.099,87.561c-57.578,146.389 -337.846,74.93 -507.96,-168.978c-55.299,-79.288 -57.851,-114.634 -58.65,-125.702c-6.523,-90.349 45.727,-181.692 119.502,-159.296c20.912,6.348 29.234,14.609 66.954,116.387c5.949,16.053 5.158,20.927 4.461,31.82Z" style="fill:#fefefe;"/><path d="M746.466,101.736c-2.443,1.858 -2.568,1.961 -5.425,0.794c-0.86,-0.352 -0.942,0.427 -11.167,-3.191c-158.46,-56.057 -422.355,-15.255 -561.244,213.321c-92.079,151.539 -90.683,339.435 -7.342,488.22c13.39,23.904 8.953,25.853 -9.335,95.848c-27.243,104.27 -28.062,104.038 -28.556,104.841c-32.528,9.071 -32.48,9.107 -33.891,9.388c-1.092,0.217 -2.597,-0.616 1.043,-13.872c16.596,-60.431 40.516,-152.579 43.965,-165.866c5.796,-22.329 -6.561,-30.609 -20.985,-61.482c-190.211,-407.1 202.74,-836 632.937,-668.002Z" style="fill:#199146;"/></g></svg>